<?xml version="1.0" standalone="no"?>
<!DOCTYPE svg PUBLIC "-//W3C//DTD SVG 1.1//EN" "http://www.w3.org/Graphics/SVG/1.1/DTD/svg11.dtd" >
<svg xmlns="http://www.w3.org/2000/svg" xmlns:xlink="http://www.w3.org/1999/xlink" version="1.1">
<metadata>
Created by FontForge 20170731 at Fri Jan  4 23:26:21 2013
 By Aleksey,,,
Copyright (c) 2012 by Rui Abreu, Portugal. All rights reserved.
</metadata>
<defs>
<font id="AzoSans-Thin" horiz-adv-x="470" >
  <font-face 
    font-family="Azo Sans Tn"
    font-weight="250"
    font-stretch="normal"
    units-per-em="1000"
    panose-1="2 0 0 0 0 0 0 0 0 0"
    ascent="800"
    descent="-200"
    x-height="492"
    cap-height="724"
    bbox="-84 -272 1287 1004"
    underline-thickness="22"
    underline-position="-186"
    unicode-range="U+000D-FB02"
  />
<missing-glyph horiz-adv-x="644" 
d="M150 604l131 131l213 -212l-101 -101l101 -100l-101 -101l101 -100l-132 -132l-212 213l100 100l-100 101l100 100z" />
    <glyph glyph-name="fi" unicode="fi" horiz-adv-x="528" 
d="M115 0v471h-92v21h92v122q0 93 38 128q36 33 95 33q30 0 56 -7v-23q-26 8 -56 8q-61 0 -85.5 -34.5t-24.5 -103.5v-123h150v-21h-150v-471h-23zM393 666q0 10 7.5 18t18.5 8t18.5 -8t7.5 -18t-7.5 -18t-18.5 -8t-18.5 8t-7.5 18zM408 0v492h23v-492h-23z" />
    <glyph glyph-name="fl" unicode="fl" horiz-adv-x="528" 
d="M115 0v471h-92v21h92v122q0 93 38 128q36 33 95 33q30 0 56 -7v-23q-26 8 -56 8q-61 0 -85.5 -34.5t-24.5 -103.5v-123h150v-21h-150v-471h-23zM408 0v764h23v-764h-23z" />
    <glyph glyph-name=".notdef" horiz-adv-x="644" 
d="M150 604l131 131l213 -212l-101 -101l101 -100l-101 -101l101 -100l-132 -132l-212 213l100 100l-100 101l100 100z" />
    <glyph glyph-name=".null" horiz-adv-x="1" 
 />
    <glyph glyph-name=".null" horiz-adv-x="1" 
 />
    <glyph glyph-name="nonmarkingreturn" horiz-adv-x="333" 
 />
    <glyph glyph-name="CR" unicode="&#xd;" horiz-adv-x="343" 
 />
    <glyph glyph-name="space" unicode=" " horiz-adv-x="249" 
 />
    <glyph glyph-name="exclam" unicode="!" horiz-adv-x="322" 
d="M129 21q0 13 9.5 22.5t22.5 9.5t22.5 -9.5t9.5 -22.5t-9.5 -22.5t-22.5 -9.5t-22.5 9.5t-9.5 22.5zM152 196l-3 528h24l-3 -528h-18z" />
    <glyph glyph-name="quotedbl" unicode="&#x22;" horiz-adv-x="331" 
d="M86 489l-5 253h27l-5 -253h-17zM228 489l-5 253h27l-5 -253h-17z" />
    <glyph glyph-name="numbersign" unicode="#" horiz-adv-x="600" 
d="M90 0l71 245h-142l6 21h142l56 192h-142l6 21h142l71 245h22l-71 -245h166l71 245h22l-71 -245h142l-6 -21h-142l-56 -192h142l-6 -21h-142l-71 -245h-22l71 245h-166l-71 -245h-22zM189 266h166l56 192h-166z" />
    <glyph glyph-name="dollar" unicode="$" horiz-adv-x="548" 
d="M84 103v28q83 -62 197 -62q81 0 129.5 36.5t48.5 103.5q0 31 -12 54.5t-27.5 38t-43.5 26.5t-47.5 17.5t-52.5 12.5q-34 7 -54 12.5t-51 18t-48 28t-30.5 42.5t-13.5 61q0 72 50.5 113.5t135.5 43.5v123h22v-123q96 -5 171 -52v-28q-82 58 -187 58q-77 0 -123 -35
t-46 -99q0 -29 11.5 -52t26 -36.5t42.5 -24.5t46.5 -16t51.5 -12q29 -6 46 -10.5t44.5 -14t44 -21t34 -28.5t25.5 -41.5t8 -54.5q0 -75 -53 -118t-142 -45v-123h-22v123q-110 5 -181 56z" />
    <glyph glyph-name="percent" unicode="%" horiz-adv-x="932" 
d="M230 361q-69 0 -118.5 54.5t-49.5 132.5t49.5 132.5t118.5 54.5t118.5 -54.5t49.5 -132.5t-49.5 -132.5t-118.5 -54.5zM218 0l471 724h25l-471 -724h-25zM230 382q60 0 103 48t43 118t-43 118t-103 48t-103 -48t-43 -118t43 -118t103 -48zM534 176q0 78 49.5 132.5
t118.5 54.5t118.5 -54.5t49.5 -132.5t-49.5 -132.5t-118.5 -54.5t-118.5 54.5t-49.5 132.5zM556 176q0 -70 43 -118t103 -48t103 48t43 118t-43 118t-103 48t-103 -48t-43 -118z" />
    <glyph glyph-name="ampersand" unicode="&#x26;" horiz-adv-x="689" 
d="M587 434h22l-75 -282l152 -150l-1 -2h-27l-132 130q-28 -65 -86 -103t-143 -38q-102 0 -161.5 54t-59.5 135q0 104 110 178l67 44l-41 41q-75 75 -75 148q0 66 44 106t110 40q65 0 109 -39.5t44 -107.5q0 -85 -98 -150l-61 -41l231 -228zM298 11q158 0 211 136l-241 239
l-66 -44q-103 -69 -103 -162q0 -74 53.5 -121.5t145.5 -47.5zM160 588q0 -66 65 -131l45 -45l66 44q85 57 85 132q0 56 -37 90.5t-94 34.5t-93.5 -34t-36.5 -91z" />
    <glyph glyph-name="quotesingle" unicode="'" horiz-adv-x="189" 
d="M86 489l-5 253h27l-5 -253h-17z" />
    <glyph glyph-name="parenleft" unicode="(" horiz-adv-x="298" 
d="M92 265q0 150 41.5 272t105.5 206h25q-67 -88 -108.5 -211t-41.5 -267t41.5 -267t108.5 -211h-25q-64 84 -105.5 206t-41.5 272z" />
    <glyph glyph-name="parenright" unicode=")" horiz-adv-x="298" 
d="M34 -213q67 88 108.5 211t41.5 267t-41.5 267t-108.5 211h25q64 -84 105.5 -206t41.5 -272t-41.5 -272t-105.5 -206h-25z" />
    <glyph glyph-name="asterisk" unicode="*" horiz-adv-x="466" 
d="M224 564l-3 167h24l-3 -167h-18zM267 534l-5 17l158 55l7 -23zM199 534l-160 49l7 23l158 -55zM342 364l-96 137l15 10l101 -134zM124 364l-20 13l101 134l15 -10z" />
    <glyph glyph-name="plus" unicode="+" horiz-adv-x="578" 
d="M278 116v236h-224v21h224v234h22v-234h224v-21h-224v-236h-22z" />
    <glyph glyph-name="comma" unicode="," horiz-adv-x="304" 
d="M84 -147l60 261h27l-69 -261h-18z" />
    <glyph glyph-name="hyphen" unicode="-" horiz-adv-x="366" 
d="M69 266v22h228v-22h-228z" />
    <glyph glyph-name="period" unicode="." horiz-adv-x="304" 
d="M120 21q0 13 9 22.5t23 9.5t23 -9.5t9 -22.5t-9 -22.5t-23 -9.5t-23 9.5t-9 22.5z" />
    <glyph glyph-name="slash" unicode="/" horiz-adv-x="426" 
d="M32 -38l338 800h24l-338 -800h-24z" />
    <glyph glyph-name="zero" unicode="0" horiz-adv-x="591" 
d="M296 -11q-108 0 -168 97q-56 91 -56 276t56 276q60 97 168 97q107 0 167 -97q56 -91 56 -276t-56 -276q-60 -97 -167 -97zM296 11q93 0 148 87q52 83 52 264t-52 264q-55 87 -148 87t-149 -87q-52 -83 -52 -264t52 -264q56 -87 149 -87z" />
    <glyph glyph-name="one" unicode="1" horiz-adv-x="493" 
d="M273 0v703l-187 -79v22l209 89v-735h-22z" />
    <glyph glyph-name="two" unicode="2" horiz-adv-x="547" 
d="M38 2l252 284q66 74 100 133t34 124q0 81 -52.5 125.5t-129.5 44.5q-85 0 -151 -58v28q64 52 153 52q86 0 144.5 -51t58.5 -141q0 -66 -34 -128.5t-104 -140.5l-223 -251l1 -1h395v-22h-443z" />
    <glyph glyph-name="three" unicode="3" horiz-adv-x="527" 
d="M57 63v33q38 -42 90.5 -63.5t106.5 -21.5q83 0 137 47t54 126q0 76 -50.5 123t-139.5 47h-65v21h59q78 0 127.5 48t49.5 123q0 76 -51 121.5t-129 45.5q-73 0 -133 -40v25q61 37 134 37q89 0 145.5 -53t56.5 -134q0 -61 -33.5 -111.5t-99.5 -69.5v-1q74 -14 113 -64.5
t39 -118.5q0 -84 -59.5 -139t-156.5 -55q-59 0 -110.5 20.5t-84.5 53.5z" />
    <glyph glyph-name="four" unicode="4" horiz-adv-x="615" 
d="M33 208l-1 2l378 514h23v-494h161v-22h-161v-208h-23v208h-377zM75 231l1 -1h334v455h-1z" />
    <glyph glyph-name="five" unicode="5" horiz-adv-x="528" 
d="M53 25l2 24q77 -38 160 -38q103 0 165 51t62 133q0 52 -24.5 90t-65.5 59t-87 31t-97 10q-42 0 -81 -6l26 345h330l-2 -22h-307l-22 -299q30 3 58 3q54 0 103 -10.5t93.5 -33.5t71.5 -65.5t27 -100.5q0 -90 -68 -148.5t-183 -58.5q-87 0 -161 36z" />
    <glyph glyph-name="six" unicode="6" horiz-adv-x="563" 
d="M295 724h26l-174 -314q-41 -75 -50 -100l1 -1q29 46 78.5 71.5t108.5 25.5q92 0 154 -59.5t62 -147.5q0 -90 -63 -150t-159 -60q-99 0 -160 64.5t-61 154.5q0 51 16 98t54 114zM81 202q0 -76 54.5 -133.5t143.5 -57.5q82 0 140 51t58 135q0 80 -54.5 133t-137.5 53
q-84 0 -144 -52t-60 -129z" />
    <glyph glyph-name="seven" unicode="7" horiz-adv-x="539" 
d="M148 0l307 702h-400v22h432l1 -2l-316 -722h-24z" />
    <glyph glyph-name="eight" unicode="8" horiz-adv-x="575" 
d="M65 190q0 69 41.5 121t116.5 73v1q-65 18 -102.5 63t-37.5 107q0 78 57.5 129t146.5 51t147 -51t58 -129q0 -62 -37 -107t-102 -63v-1q75 -21 116 -73t41 -121q0 -86 -62 -143.5t-161 -57.5q-98 0 -160 57.5t-62 143.5zM287 395q77 0 129.5 44.5t52.5 115.5t-52 115
t-130 44t-129.5 -44t-51.5 -115t52 -115.5t129 -44.5zM88 189q0 -80 57 -129.5t142 -49.5t142.5 49.5t57.5 129.5q0 81 -58 133t-142 52q-83 0 -141 -52t-58 -133z" />
    <glyph glyph-name="nine" unicode="9" horiz-adv-x="549" 
d="M213 0h-27l213 328q24 38 38 67l-1 1q-27 -35 -71.5 -55.5t-97.5 -20.5q-92 0 -153.5 59.5t-61.5 146.5q0 90 63 149.5t156 59.5t156 -61t63 -155q0 -88 -75 -206zM267 342q85 0 142 55t57 130q0 74 -55 130t-139 56q-81 0 -139 -51.5t-58 -134.5q0 -79 54.5 -132
t137.5 -53z" />
    <glyph glyph-name="colon" unicode=":" horiz-adv-x="304" 
d="M152 439q-14 0 -23 9.5t-9 22.5t9 22.5t23 9.5t23 -9.5t9 -22.5t-9 -22.5t-23 -9.5zM120 21q0 13 9 22.5t23 9.5t23 -9.5t9 -22.5t-9 -22.5t-23 -9.5t-23 9.5t-9 22.5z" />
    <glyph glyph-name="semicolon" unicode=";" horiz-adv-x="304" 
d="M84 -147l60 261h27l-69 -261h-18zM152 439q-14 0 -23 9.5t-9 22.5t9 22.5t23 9.5t23 -9.5t9 -22.5t-9 -22.5t-23 -9.5z" />
    <glyph glyph-name="less" unicode="&#x3c;" horiz-adv-x="656" 
d="M98 353v17l460 222v-23l-429 -207v-1l429 -207v-23z" />
    <glyph glyph-name="equal" unicode="=" horiz-adv-x="578" 
d="M54 445v21h470v-21h-470zM54 258v21h470v-21h-470z" />
    <glyph glyph-name="greater" unicode="&#x3e;" horiz-adv-x="656" 
d="M98 131v23l429 207v1l-429 207v23l460 -222v-17z" />
    <glyph glyph-name="question" unicode="?" horiz-adv-x="466" 
d="M167 184l-16 149q98 0 163.5 54.5t65.5 140.5q0 79 -55 132t-141 53q-64 0 -122 -34l-3 24q59 32 127 32q92 0 154.5 -59.5t62.5 -147.5q0 -90 -65.5 -149t-161.5 -65l13 -130h-22zM163 21q0 13 9.5 22.5t22.5 9.5t22.5 -9.5t9.5 -22.5t-9.5 -22.5t-22.5 -9.5t-22.5 9.5
t-9.5 22.5z" />
    <glyph glyph-name="at" unicode="@" horiz-adv-x="823" 
d="M46 247q0 156 104 264t262 108t261.5 -108t103.5 -265q0 -83 -34.5 -137.5t-104.5 -54.5q-36 0 -66.5 18.5t-40.5 55.5h-1q-27 -35 -65.5 -55t-78.5 -20q-66 0 -110 46.5t-44 122.5q0 86 54 151.5t140 65.5q63 0 120 -39l23 4l-20 -217q-1 -10 -1 -24q0 -41 24.5 -64.5
t67.5 -23.5q53 0 83.5 42t30.5 126q0 152 -97.5 253t-244.5 101t-245 -101t-98 -249q0 -150 98.5 -251t245.5 -101q132 0 223 82l13 -19q-101 -85 -238 -85q-157 0 -261 109t-104 265zM388 75q85 0 138 81q0 15 1 24l18 195q-55 42 -119 42q-74 0 -122.5 -57.5t-48.5 -135.5
q0 -66 36.5 -107.5t96.5 -41.5z" />
    <glyph glyph-name="A" unicode="A" horiz-adv-x="667" 
d="M17 0l306 724h21l306 -724h-25l-99 233h-386l-98 -233h-25zM333 690l-184 -435h368l-183 435h-1z" />
    <glyph glyph-name="B" unicode="B" horiz-adv-x="630" 
d="M100 0v724h181q115 0 172 -35q80 -49 80 -146q0 -63 -35.5 -108t-100.5 -61v-1q76 -12 121.5 -61.5t45.5 -120.5q0 -93 -74 -146q-34 -24 -77.5 -34.5t-128.5 -10.5h-184zM123 382h192q87 0 141 43t54 117q0 85 -70 128q-50 32 -159 32h-158v-320zM123 22h161
q138 0 195 43q62 46 62 126q0 77 -58 123t-149 46h-211v-338z" />
    <glyph glyph-name="C" unicode="C" horiz-adv-x="687" 
d="M55 362q0 159 104.5 266t272.5 107q92 0 181 -41v-26q-81 45 -181 45q-158 0 -256 -100.5t-98 -250.5t98 -250.5t256 -100.5q109 0 196 51v-26q-85 -47 -196 -47q-167 0 -272 107t-105 266z" />
    <glyph glyph-name="D" unicode="D" horiz-adv-x="739" 
d="M100 0v724h169q193 0 296 -90q56 -49 89 -119.5t33 -150.5q0 -74 -28.5 -141.5t-74.5 -114.5q-106 -108 -315 -108h-169zM123 22h146q198 0 298 100q97 97 97 240q0 75 -30 142t-84 114q-96 84 -281 84h-146v-680z" />
    <glyph glyph-name="E" unicode="E" horiz-adv-x="554" 
d="M100 0v724h383v-22h-360v-315h321v-22h-321v-343h368v-22h-391z" />
    <glyph glyph-name="F" unicode="F" horiz-adv-x="554" 
d="M100 0v724h393v-22h-370v-329h331v-22h-331v-351h-23z" />
    <glyph glyph-name="G" unicode="G" horiz-adv-x="736" 
d="M55 363q0 158 104 265t270 107q108 0 204 -52v-25q-93 55 -205 55q-155 0 -252.5 -100.5t-97.5 -249.5t97 -250t251 -101q113 0 202 52v244h-207v22h230v-279q-98 -62 -226 -62q-162 0 -266 108t-104 266z" />
    <glyph glyph-name="H" unicode="H" horiz-adv-x="734" 
d="M100 0v724h23v-337h488v337h23v-724h-23v365h-488v-365h-23z" />
    <glyph glyph-name="I" unicode="I" horiz-adv-x="223" 
d="M100 0v724h23v-724h-23z" />
    <glyph glyph-name="J" unicode="J" horiz-adv-x="394" 
d="M49 12v24q53 -25 103 -25q71 0 95 44t24 130v539h23v-540q0 -111 -36 -153q-35 -42 -106 -42q-47 0 -103 23z" />
    <glyph glyph-name="K" unicode="K" horiz-adv-x="600" 
d="M100 0v724h23v-334h1l389 334h32l-392 -336l423 -388h-34l-418 384h-1v-384h-23z" />
    <glyph glyph-name="L" unicode="L" horiz-adv-x="550" 
d="M100 0v724h23v-702h378v-22h-401z" />
    <glyph glyph-name="M" unicode="M" horiz-adv-x="860" 
d="M100 0v724h22l308 -444l308 444h22v-724h-23v682h-1l-306 -441l-306 441h-1v-682h-23z" />
    <glyph glyph-name="N" unicode="N" horiz-adv-x="758" 
d="M100 0v724h23l511 -684h1v684h23v-724h-23l-511 684h-1v-684h-23z" />
    <glyph glyph-name="O" unicode="O" horiz-adv-x="832" 
d="M55 362q0 157 103.5 265t257.5 108t257.5 -108t103.5 -265t-103.5 -265t-257.5 -108t-257.5 108t-103.5 265zM78 362q0 -148 96.5 -249.5t241.5 -101.5t241.5 101.5t96.5 249.5t-96.5 249.5t-241.5 101.5t-241.5 -101.5t-96.5 -249.5z" />
    <glyph glyph-name="P" unicode="P" horiz-adv-x="612" 
d="M100 0v724h189q142 0 209 -54q69 -56 69 -149t-69 -148q-67 -53 -210 -53h-165v-320h-23zM123 342h166q134 0 194 49q61 50 61 132q0 81 -61 130t-194 49h-166v-360z" />
    <glyph glyph-name="Q" unicode="Q" horiz-adv-x="833" 
d="M55 362q0 157 103.5 265t257.5 108t258 -108t104 -265q0 -149 -94.5 -255.5t-237.5 -116.5v-1q124 -95 281 -143l-28 -16q-150 52 -290 159q-152 3 -253 110.5t-101 262.5zM78 362q0 -148 96.5 -249.5t241.5 -101.5q146 0 242.5 101.5t96.5 249.5t-96.5 249.5
t-242.5 101.5q-145 0 -241.5 -101.5t-96.5 -249.5z" />
    <glyph glyph-name="R" unicode="R" horiz-adv-x="632" 
d="M100 0v724h192q134 0 197 -51q67 -54 67 -141q0 -82 -58 -134q-53 -48 -155 -56l253 -342h-28l-251 340h-194v-340h-23zM123 362h185q118 0 175 52q50 45 50 118q0 79 -60 126q-57 44 -182 44h-168v-340z" />
    <glyph glyph-name="S" unicode="S" horiz-adv-x="545" 
d="M74 54v28q85 -71 207 -71q86 0 139.5 43.5t53.5 123.5q0 35 -12.5 63.5t-29 46t-46 32t-51 22t-56.5 16.5q-39 11 -61.5 18t-55.5 23t-50.5 34t-31 48.5t-13.5 69.5q0 87 57 135.5t149 48.5q114 0 196 -59v-27q-86 64 -196 64q-83 0 -133 -42t-50 -118q0 -29 7 -52.5
t23 -40.5t30.5 -29t41 -22t43 -15.5t46.5 -13.5q32 -9 51.5 -15t48.5 -17.5t46.5 -25.5t35 -34t26 -47t8.5 -61q0 -90 -59 -140.5t-155 -50.5q-56 0 -113 17.5t-96 47.5z" />
    <glyph glyph-name="T" unicode="T" horiz-adv-x="615" 
d="M296 0v702h-256v22h535v-22h-256v-702h-23z" />
    <glyph glyph-name="U" unicode="U" horiz-adv-x="716" 
d="M170 55q-44 44 -61.5 112t-17.5 180v377h23v-377q0 -107 16.5 -172.5t57.5 -105.5q60 -58 170 -58q132 0 193 84q29 40 40.5 98.5t11.5 153.5v377h22v-377q0 -97 -12 -157.5t-42 -104.5q-66 -97 -213 -97q-121 0 -188 67z" />
    <glyph glyph-name="V" unicode="V" horiz-adv-x="637" 
d="M307 0l-285 724h25l271 -690h1l271 690h25l-285 -724h-23z" />
    <glyph glyph-name="W" unicode="W" horiz-adv-x="991" 
d="M259 0l-231 724h24l137 -430l81 -255h1l81 257l135 428h17l141 -447l75 -238h1l76 239l142 446h24l-231 -724h-23l-150 476l-63 200h-1l-63 -200l-150 -476h-23z" />
    <glyph glyph-name="X" unicode="X" horiz-adv-x="635" 
d="M28 0l275 384l-242 340h27l229 -323h1l229 323h27l-242 -340l275 -384h-27l-262 367h-1l-262 -367h-27z" />
    <glyph glyph-name="Y" unicode="Y" horiz-adv-x="631" 
d="M304 0v328l-281 396h27l265 -374h1l265 374h27l-281 -396v-328h-23z" />
    <glyph glyph-name="Z" unicode="Z" horiz-adv-x="595" 
d="M553 0h-528l-1 2l493 699l-1 1h-468v22h511l1 -2l-493 -699l1 -1h485v-22z" />
    <glyph glyph-name="bracketleft" unicode="[" horiz-adv-x="313" 
d="M118 -192h165v-21h-187v956h187v-21h-165v-914z" />
    <glyph glyph-name="backslash" unicode="\" horiz-adv-x="427" 
d="M370 -38l-336 800h24l336 -800h-24z" />
    <glyph glyph-name="bracketright" unicode="]" horiz-adv-x="313" 
d="M30 -192h165v914h-165v21h187v-956h-187v21z" />
    <glyph glyph-name="asciicircum" unicode="^" horiz-adv-x="595" 
d="M94 362l193 373h21l193 -373h-25l-178 347h-1l-178 -347h-25z" />
    <glyph glyph-name="underscore" unicode="_" horiz-adv-x="447" 
d="M0 -105h447v-21h-447v21z" />
    <glyph glyph-name="grave" unicode="`" 
d="M256 563l-100 164h25l96 -164h-21z" />
    <glyph glyph-name="a" unicode="a" horiz-adv-x="524" 
d="M218 -11q-68 0 -113 33q-50 36 -50 101q0 72 57 109q49 32 133 32q65 0 151 -24v77q0 49 -9 77.5t-35 50.5q-43 36 -112 36q-84 0 -151 -48v25q66 45 151 45q78 0 128 -40q51 -42 51 -139v-212q0 -48 13 -72.5t51 -24.5q20 0 36 8v-23q-17 -7 -38 -7q-68 0 -82 67h-1
q-83 -71 -180 -71zM218 11q99 0 178 74v133q-83 25 -151 25q-70 0 -118.5 -27.5t-48.5 -89.5q0 -58 41.5 -86.5t98.5 -28.5z" />
    <glyph glyph-name="b" unicode="b" horiz-adv-x="585" 
d="M97 27v737h23v-335l1 -1q75 75 176 75q100 0 166.5 -71.5t66.5 -182.5q0 -112 -68 -186t-180 -74q-72 0 -163 42zM120 54q86 -43 162 -43q104 0 164.5 68.5t60.5 169.5q0 100 -58.5 166t-151.5 66q-104 0 -177 -82v-345z" />
    <glyph glyph-name="c" unicode="c" horiz-adv-x="515" 
d="M56 245q0 111 71 184.5t184 73.5q71 0 133 -32v-26q-64 36 -133 36q-102 0 -167 -67t-65 -169t65 -168t165 -66q81 0 142 41v-27q-65 -36 -143 -36q-111 0 -181.5 73t-70.5 183z" />
    <glyph glyph-name="d" unicode="d" horiz-adv-x="586" 
d="M55 236q0 111 66 189t181 78q80 0 163 -47l1 1v307h23v-764h-23v66h-1q-31 -35 -78 -56t-101 -21q-99 0 -165 68.5t-66 178.5zM78 238q0 -100 58 -163.5t152 -63.5q109 0 178 85v334q-79 51 -163 51q-102 0 -163.5 -70t-61.5 -173z" />
    <glyph glyph-name="e" unicode="e" horiz-adv-x="559" 
d="M503 243h-424q1 -100 65.5 -166t167.5 -66q91 0 162 52v-27q-72 -47 -163 -47q-111 0 -183 72t-72 185q0 111 68.5 184t168.5 73q90 0 151 -60.5t61 -163.5q0 -16 -2 -36zM292 481q-81 0 -143.5 -58.5t-68.5 -157.5h402v11q0 57 -19 99.5t-49 64t-60.5 31.5t-61.5 10z
" />
    <glyph glyph-name="f" unicode="f" horiz-adv-x="311" 
d="M115 0v471h-92v21h92v122q0 93 38 128q36 33 95 33q30 0 56 -7v-23q-26 8 -56 8q-61 0 -85.5 -34.5t-24.5 -103.5v-123h150v-21h-150v-471h-23z" />
    <glyph glyph-name="g" unicode="g" horiz-adv-x="581" 
d="M113 -192v26q67 -43 148 -43q95 0 148 55t53 152v76h-1q-68 -75 -176 -75q-101 0 -165.5 68.5t-64.5 175.5q0 108 65 184t177 76q86 0 166 -49l22 4v-461q0 -103 -58.5 -165.5t-164.5 -62.5q-78 0 -149 39zM78 245q0 -99 58 -161.5t151 -62.5q106 0 175 83v325
q-75 52 -165 52q-99 0 -159 -67.5t-60 -168.5z" />
    <glyph glyph-name="h" unicode="h" horiz-adv-x="591" 
d="M97 0v764h23v-350l1 -1q103 90 208 90q77 0 122 -45q46 -46 46 -149v-309h-23v305q0 96 -40 137q-37 39 -106 39q-103 0 -208 -95v-386h-23z" />
    <glyph glyph-name="i" unicode="i" horiz-adv-x="217" 
d="M82 666q0 10 8 18t18 8t18 -8t8 -18t-8 -18t-18 -8t-18 8t-8 18zM97 0v492h23v-492h-23z" />
    <glyph glyph-name="j" unicode="j" horiz-adv-x="220" 
d="M84 666q0 10 8 18t18 8t18 -8t8 -18t-8 -18t-18 -8t-18 8t-8 18zM99 -89v581h23v-580q0 -75 -28 -108q-30 -35 -88 -35q-22 0 -47 5v23q26 -6 48 -6q51 0 71.5 30t20.5 90z" />
    <glyph glyph-name="k" unicode="k" horiz-adv-x="480" 
d="M97 0v764h23v-491h1l280 219h32l-282 -220l311 -272h-34l-307 269h-1v-269h-23z" />
    <glyph glyph-name="l" unicode="l" horiz-adv-x="217" 
d="M97 0v764h23v-764h-23z" />
    <glyph glyph-name="m" unicode="m" horiz-adv-x="948" 
d="M831 0v307q0 97 -39 136q-36 38 -105 38q-105 0 -206 -99q6 -30 6 -70v-312h-23v307q0 97 -39 136q-36 38 -105 38q-98 0 -200 -93v-388h-23v492h23v-76l1 -1q103 88 200 88q54 0 95 -24.5t59 -74.5q108 99 213 99q76 0 121 -45t45 -146v-312h-23z" />
    <glyph glyph-name="n" unicode="n" horiz-adv-x="592" 
d="M97 0v492h23v-78l1 -1q103 90 208 90q77 0 122 -45q46 -46 46 -149v-309h-23v305q0 96 -40 137q-37 39 -106 39q-103 0 -208 -95v-386h-23z" />
    <glyph glyph-name="o" unicode="o" horiz-adv-x="610" 
d="M56 246q0 109 71 183t178 74t178 -74t71 -183t-71 -183t-178 -74t-178 74t-71 183zM79 246q0 -101 64.5 -168t161.5 -67t161.5 67t64.5 168t-64.5 168t-161.5 67t-161.5 -67t-64.5 -168z" />
    <glyph glyph-name="p" unicode="p" horiz-adv-x="588" 
d="M120 50v-270h-23v712h23v-56l1 -1q77 68 174 68q105 0 171.5 -73t66.5 -184q0 -110 -66 -183.5t-172 -73.5q-95 0 -173 62zM120 80q74 -69 174 -69q96 0 156 66.5t60 169.5q0 102 -59.5 168t-155.5 66q-104 0 -175 -74v-327z" />
    <glyph glyph-name="q" unicode="q" horiz-adv-x="586" 
d="M55 243q0 108 66 184t180 76q78 0 165 -46l23 4v-681h-23v280h-1q-74 -71 -176 -71q-101 0 -167.5 72.5t-66.5 181.5zM78 243q0 -100 60.5 -166t151.5 -66q102 0 176 77v343q-80 50 -166 50q-101 0 -161.5 -69t-60.5 -169z" />
    <glyph glyph-name="r" unicode="r" horiz-adv-x="334" 
d="M97 0v492h23v-89l2 -1q76 97 174 97q13 0 25 -2v-22q-12 2 -25 2q-98 0 -176 -107v-370h-23z" />
    <glyph glyph-name="s" unicode="s" horiz-adv-x="480" 
d="M55 36v29q79 -54 186 -54q76 0 119.5 29t43.5 84q0 26 -11 45.5t-26 31t-41 20.5t-44.5 12.5t-48.5 8.5q-24 3 -38 6t-39 9t-40.5 15.5t-32 22.5t-24.5 33t-8 45q0 61 48.5 95.5t132.5 34.5q98 0 175 -45v-28q-74 51 -177 51q-72 0 -114 -28t-42 -80q0 -24 10.5 -42.5
t24.5 -29t40 -18.5t43 -11.5t47 -7.5q25 -4 40 -7t40.5 -9.5t41.5 -16t33 -24t25 -35.5t8 -48q0 -63 -50 -99t-138 -36q-107 0 -184 47z" />
    <glyph glyph-name="t" unicode="t" horiz-adv-x="354" 
d="M161 27q-33 37 -33 137v307h-107v21h107v142l23 4v-146h173v-21h-173v-304q0 -78 22 -117t87 -39q36 0 64 15v-24q-33 -13 -65 -13q-66 0 -98 38z" />
    <glyph glyph-name="u" unicode="u" horiz-adv-x="590" 
d="M138 37q-44 48 -44 162v293h23v-288q0 -111 39 -153q37 -40 109 -40q103 0 206 98v383h23v-492h-23v81h-1q-98 -92 -209 -92q-79 0 -123 48z" />
    <glyph glyph-name="v" unicode="v" horiz-adv-x="529" 
d="M253 0l-213 492h24l199 -461h1l200 461h24l-214 -492h-21z" />
    <glyph glyph-name="w" unicode="w" horiz-adv-x="803" 
d="M220 0l-177 492h23l102 -284l62 -173h1l60 167l104 290h13l99 -276l65 -181h1l62 173l102 284h23l-177 -492h-20l-101 281l-60 167h-1l-64 -178l-97 -270h-20z" />
    <glyph glyph-name="x" unicode="x" horiz-adv-x="479" 
d="M7 0l217 261l-191 231h27l179 -217h1l179 217h27l-191 -231l217 -261h-27l-205 247h-1l-205 -247h-27z" />
    <glyph glyph-name="y" unicode="y" horiz-adv-x="528" 
d="M142 -220h-25l135 274l-212 438h24l199 -413h1l200 413h24z" />
    <glyph glyph-name="z" unicode="z" 
d="M436 0h-404l-1 2l367 468l-1 1h-347v21h391l1 -2l-367 -468l1 -1h360v-21z" />
    <glyph glyph-name="braceleft" unicode="{" horiz-adv-x="336" 
d="M147 -74v228q0 56 -16 78t-77 22h-22v22h22q61 0 77 22t16 78v228q0 83 27.5 116.5t92.5 33.5q23 0 51 -6v-21q-28 6 -51 6q-57 0 -77.5 -29.5t-20.5 -99.5v-228q0 -47 -11.5 -74t-46.5 -36v-1q35 -9 46.5 -36.5t11.5 -74.5v-228q0 -70 20.5 -99.5t77.5 -29.5q23 0 51 6
v-21q-28 -6 -51 -6q-65 0 -92.5 33.5t-27.5 116.5z" />
    <glyph glyph-name="bar" unicode="|" horiz-adv-x="318" 
d="M148 -220v1020h22v-1020h-22z" />
    <glyph glyph-name="braceright" unicode="}" horiz-adv-x="336" 
d="M167 -74v228q0 47 11.5 74t46.5 36v1q-35 9 -46.5 36.5t-11.5 74.5v228q0 70 -20.5 99.5t-77.5 29.5q-23 0 -51 -6v21q28 6 51 6q65 0 92.5 -33.5t27.5 -116.5v-228q0 -56 16 -78t77 -22h22v-22h-22q-61 0 -77 -22t-16 -78v-228q0 -83 -27.5 -116.5t-92.5 -33.5
q-23 0 -51 6v21q28 -6 51 -6q57 0 77.5 29.5t20.5 99.5z" />
    <glyph glyph-name="asciitilde" unicode="~" horiz-adv-x="548" 
d="M382 310q-42 0 -118 45q-65 38 -99 38q-57 0 -91 -71l-2 1v33q31 58 94 58q42 0 118 -45q65 -38 99 -38q57 0 91 71l2 -1v-33q-31 -58 -94 -58z" />
    <glyph glyph-name="uni00A0" unicode="&#xa0;" horiz-adv-x="249" 
 />
    <glyph glyph-name="exclamdown" unicode="&#xa1;" horiz-adv-x="322" 
d="M170 296l3 -528h-24l3 528h18zM193 471q0 -13 -9.5 -22.5t-22.5 -9.5t-22.5 9.5t-9.5 22.5t9.5 22.5t22.5 9.5t22.5 -9.5t9.5 -22.5z" />
    <glyph glyph-name="cent" unicode="&#xa2;" horiz-adv-x="527" 
d="M287 -18v124q-101 9 -164 80.5t-63 174.5t62.5 174.5t164.5 81.5v125h22v-123q77 0 139 -32v-26q-64 36 -133 36q-102 0 -167 -67t-65 -169t65 -168t165 -66q81 0 142 41v-27q-65 -36 -146 -36v-123h-22z" />
    <glyph glyph-name="sterling" unicode="&#xa3;" horiz-adv-x="547" 
d="M79 338v21h75q-4 12 -15.5 45t-17 49t-10.5 42.5t-5 49.5q0 88 58.5 139t143.5 51q90 0 154 -52v-29q-67 59 -152 59q-76 0 -128.5 -44.5t-52.5 -123.5q0 -22 5 -48t11 -43.5t17 -48.5t16 -46h210v-21h-203q16 -57 16 -101q0 -125 -91 -213v-2h386v-22h-417v21
q99 91 99 216q0 47 -17 101h-82z" />
    <glyph glyph-name="currency" unicode="&#xa4;" horiz-adv-x="610" 
d="M115 350q0 -81 54.5 -136t135.5 -55t135.5 55t54.5 136t-54.5 136t-135.5 55t-135.5 -55t-54.5 -136zM92 350q0 82 52 142l-72 72l17 17l72 -72q59 54 144 54t144 -54l72 72l17 -17l-72 -72q52 -60 52 -142t-52 -142l72 -72l-17 -17l-72 72q-59 -54 -144 -54t-144 54
l-72 -72l-17 17l72 72q-52 60 -52 142z" />
    <glyph glyph-name="yen" unicode="&#xa5;" horiz-adv-x="645" 
d="M88 434v21h160l-191 269h27l238 -336h1l238 336h27l-191 -269h160v-21h-175l-48 -68v-100h223v-21h-223v-245h-23v245h-223v21h223v100l-48 68h-175z" />
    <glyph glyph-name="brokenbar" unicode="&#xa6;" horiz-adv-x="318" 
d="M148 408v392h22v-392h-22zM148 172h22v-392h-22v392z" />
    <glyph glyph-name="section" unicode="&#xa7;" horiz-adv-x="545" 
d="M123 -89q71 -44 145 -44q66 0 107 32t41 92q0 22 -5 39t-19 31.5t-24.5 23.5t-38.5 21.5t-42 18t-52 19.5q-43 16 -67 27.5t-53 31.5t-42 48t-13 65q0 57 33 94.5t89 51.5v1q-72 43 -72 121q0 68 46.5 106t116.5 38q72 0 136 -37v-24q-61 39 -135 39q-62 0 -101.5 -31.5
t-39.5 -89.5q0 -22 5 -39t19 -31.5t24.5 -23.5t38 -21.5t42 -18t51.5 -19.5q35 -13 53.5 -21t46 -24t41.5 -31.5t24.5 -40.5t10.5 -56q0 -57 -32.5 -94.5t-88.5 -51.5v-1q71 -43 71 -122q0 -69 -47.5 -107t-121.5 -38q-83 0 -147 40v26zM306 412q-82 29 -102 39
q-121 -28 -121 -132q0 -58 38 -91.5t121 -63.5q4 -2 43.5 -16t59.5 -24q121 28 121 132q0 59 -39 93t-121 63z" />
    <glyph glyph-name="dieresis" unicode="&#xa8;" 
d="M148 619q-10 0 -18 7.5t-8 18.5t8 18.5t18 7.5t18 -7.5t8 -18.5t-8 -18.5t-18 -7.5zM322 619q-10 0 -18 7.5t-8 18.5t8 18.5t18 7.5t18 -7.5t8 -18.5t-8 -18.5t-18 -7.5z" />
    <glyph glyph-name="copyright" unicode="&#xa9;" horiz-adv-x="824" 
d="M45 362q0 157 104.5 265t262.5 108t262.5 -108t104.5 -265t-104.5 -265t-262.5 -108t-262.5 108t-104.5 265zM68 362q0 -148 97 -249.5t247 -101.5t247 101.5t97 249.5t-97 249.5t-247 101.5t-247 -101.5t-97 -249.5zM225 366q0 88 57 146.5t147 58.5q57 0 105 -25v-26
q-49 29 -106 29q-80 0 -130 -52t-50 -131q0 -80 50.5 -130.5t128.5 -50.5q67 0 113 33v-26q-52 -29 -114 -29q-88 0 -144.5 58t-56.5 145z" />
    <glyph glyph-name="ordfeminine" unicode="&#xaa;" horiz-adv-x="386" 
d="M178 401q-44 0 -73 21q-33 24 -33 67q0 47 37 72q31 21 87 21q35 0 95 -15v50q0 99 -98 99q-53 0 -99 -31v21q43 29 100 29q54 0 85 -28q33 -29 33 -88v-138q0 -59 38 -59q12 0 24 5v-19q-9 -4 -25 -4q-44 0 -55 41h-1q-53 -44 -115 -44zM179 420q62 0 112 45v83
q-46 15 -92 15q-106 0 -106 -72q0 -36 25.5 -53.5t60.5 -17.5z" />
    <glyph glyph-name="guillemotleft" unicode="&#xab;" horiz-adv-x="532" 
d="M242 27l-170 219l170 219h27l-170 -219l170 -219h-27zM431 27l-170 219l170 219h27l-170 -219l170 -219h-27z" />
    <glyph glyph-name="logicalnot" unicode="&#xac;" horiz-adv-x="579" 
d="M54 352v21h471v-257h-22v236h-449z" />
    <glyph glyph-name="uni00AD" unicode="&#xad;" horiz-adv-x="366" 
d="M69 266v22h228v-22h-228z" />
    <glyph glyph-name="registered" unicode="&#xae;" horiz-adv-x="456" 
d="M228 363q-81 0 -134 53t-53 133t53 133t134 53t134 -53t53 -133t-53 -133t-134 -53zM228 380q74 0 121.5 47.5t47.5 121.5t-47.5 121.5t-121.5 47.5t-121.5 -47.5t-47.5 -121.5t47.5 -121.5t121.5 -47.5zM291 448l-59 81h-49v-81h-18v202h62q35 0 54.5 -16t19.5 -44
q0 -47 -49 -58l62 -84h-23zM183 546h46q53 0 53 43q0 20 -14 32t-39 12h-46v-87z" />
    <glyph glyph-name="macron" unicode="&#xaf;" 
d="M109 635v20h252v-20h-252z" />
    <glyph glyph-name="degree" unicode="&#xb0;" horiz-adv-x="408" 
d="M204 441q-63 0 -105 42.5t-42 104.5t42 104.5t105 42.5t105 -42.5t42 -104.5t-42 -104.5t-105 -42.5zM204 460q55 0 91 36.5t36 91.5t-36 91.5t-91 36.5t-91 -36.5t-36 -91.5t36 -91.5t91 -36.5z" />
    <glyph glyph-name="plusminus" unicode="&#xb1;" horiz-adv-x="578" 
d="M278 238v205h-216v21h216v205h22v-205h216v-21h-216v-205h-22zM63 97v21h453v-21h-453z" />
    <glyph glyph-name="two.superior" unicode="&#xb2;" horiz-adv-x="354" 
d="M32 422l-1 2l155 165q80 86 80 154q0 49 -31 75t-78 26q-51 0 -95 -30v22q42 27 96 27q56 0 92 -31.5t36 -87.5q0 -76 -83 -164l-130 -138l1 -1h234v-19h-276z" />
    <glyph glyph-name="three.superior" unicode="&#xb3;" horiz-adv-x="344" 
d="M44 453v23q59 -42 122 -42q49 0 82.5 27.5t33.5 72.5q0 43 -31 70t-87 27h-42v19h38q47 0 77.5 28t30.5 71t-31 69t-80 26q-46 0 -81 -22v21q38 20 83 20q56 0 92.5 -31.5t36.5 -80.5q0 -35 -20 -65t-58 -42v-2q44 -9 68 -39.5t24 -69.5q0 -50 -38 -84t-99 -34
q-63 0 -121 38z" />
    <glyph glyph-name="acute" unicode="&#xb4;" 
d="M314 727l-100 -164h-21l96 164h25z" />
    <glyph glyph-name="mu" unicode="&#xb5;" horiz-adv-x="605" 
d="M268 -11q-106 0 -145 79h-1l2 -288h-24v712h23v-288q0 -111 39 -153q37 -40 109 -40q103 0 206 98v383h23v-492h-23v79l-2 1q-99 -91 -207 -91z" />
    <glyph glyph-name="paragraph" unicode="&#xb6;" horiz-adv-x="530" 
d="M257 -220v582q-76 0 -129.5 53t-53.5 128t53.5 128t129.5 53h146v-944h-22v920h-102v-920h-22z" />
    <glyph glyph-name="periodcentered" unicode="&#xb7;" horiz-adv-x="304" 
d="M120 302q0 14 9 23t23 9t23 -9t9 -23t-9 -23t-23 -9t-23 9t-9 23z" />
    <glyph glyph-name="cedilla" unicode="&#xb8;" 
d="M199 -76l24 82l19 -4l-17 -60q95 -17 95 -84q0 -35 -24 -57t-64 -22q-37 0 -71 17l6 20q35 -16 66 -16q28 0 46 15t18 41q0 61 -98 68z" />
    <glyph glyph-name="one.superior" unicode="&#xb9;" horiz-adv-x="319" 
d="M173 422v413l-116 -47v20l136 55v-441h-20z" />
    <glyph glyph-name="ordmasculine" unicode="&#xba;" horiz-adv-x="414" 
d="M207 401q-71 0 -115.5 47.5t-44.5 119.5t44.5 119.5t115.5 47.5t115.5 -47.5t44.5 -119.5t-44.5 -119.5t-115.5 -47.5zM207 421q61 0 100 41.5t39 105.5t-39 105.5t-100 41.5t-100 -41.5t-39 -105.5t39 -105.5t100 -41.5z" />
    <glyph glyph-name="guillemotright" unicode="&#xbb;" horiz-adv-x="532" 
d="M74 27l170 219l-170 219h27l170 -219l-170 -219h-27zM263 27l170 219l-170 219h27l170 -219l-170 -219h-27z" />
    <glyph glyph-name="onequarter" unicode="&#xbc;" horiz-adv-x="890" 
d="M184 -13h-26l484 737h26zM171 294v413l-116 -47v20l136 55v-441h-20zM720 0v122h-239l-1 2l240 310h20v-293h99v-19h-99v-122h-20zM518 142l1 -1h201v261h-1z" />
    <glyph glyph-name="onehalf" unicode="&#xbd;" horiz-adv-x="923" 
d="M578 0l-1 2l155 165q80 86 80 154q0 49 -31 75t-78 26q-51 0 -95 -30v22q42 27 96 27q56 0 92 -31.5t36 -87.5q0 -76 -83 -164l-130 -138l1 -1h234v-19h-276zM184 -13h-26l484 737h26zM171 294v413l-116 -47v20l136 55v-441h-20z" />
    <glyph glyph-name="threequarters" unicode="&#xbe;" horiz-adv-x="930" 
d="M47 325v23q59 -42 122 -42q49 0 82.5 27.5t33.5 72.5q0 43 -31 70t-87 27h-42v19h38q47 0 77.5 28t30.5 71t-31 69t-80 26q-46 0 -81 -22v21q38 20 83 20q56 0 92.5 -31.5t36.5 -80.5q0 -35 -20 -65t-58 -42v-2q44 -9 68 -39.5t24 -69.5q0 -50 -38 -84t-99 -34
q-63 0 -121 38zM224 -13h-26l484 737h26zM760 0v122h-239l-1 2l240 310h20v-293h99v-19h-99v-122h-20zM558 142l1 -1h201v261h-1z" />
    <glyph glyph-name="questiondown" unicode="&#xbf;" horiz-adv-x="466" 
d="M304 308l16 -149q-98 0 -163.5 -54.5t-65.5 -140.5q0 -79 55 -132t141 -53q64 0 122 34l3 -24q-59 -32 -127 -32q-92 0 -154.5 59.5t-62.5 147.5q0 90 65.5 149t161.5 65l-13 130h22zM308 471q0 -13 -9 -22.5t-23 -9.5t-23 9.5t-9 22.5t9 22.5t23 9.5t23 -9.5t9 -22.5z
" />
    <glyph glyph-name="Agrave" unicode="&#xc0;" horiz-adv-x="667" 
d="M17 0l306 724h21l306 -724h-25l-99 233h-386l-98 -233h-25zM333 690l-184 -435h368l-183 435h-1zM354 795l-100 164h25l96 -164h-21z" />
    <glyph glyph-name="Aacute" unicode="&#xc1;" horiz-adv-x="667" 
d="M17 0l306 724h21l306 -724h-25l-99 233h-386l-98 -233h-25zM333 690l-184 -435h368l-183 435h-1zM412 959l-100 -164h-21l96 164h25z" />
    <glyph glyph-name="Acircumflex" unicode="&#xc2;" horiz-adv-x="667" 
d="M17 0l306 724h21l306 -724h-25l-99 233h-386l-98 -233h-25zM333 690l-184 -435h368l-183 435h-1zM201 795l120 164h24l120 -164h-22l-110 148l-110 -148h-22z" />
    <glyph glyph-name="Atilde" unicode="&#xc3;" horiz-adv-x="667" 
d="M17 0l306 724h21l306 -724h-25l-99 233h-386l-98 -233h-25zM333 690l-184 -435h368l-183 435h-1zM327 873q-42 27 -66 27q-44 0 -74 -54h-2v27q28 47 77 47q29 0 77 -31q42 -27 66 -27q44 0 74 54h2v-27q-28 -47 -77 -47q-29 0 -77 31z" />
    <glyph glyph-name="Adieresis" unicode="&#xc4;" horiz-adv-x="667" 
d="M17 0l306 724h21l306 -724h-25l-99 233h-386l-98 -233h-25zM333 690l-184 -435h368l-183 435h-1zM246 851q-10 0 -18 7.5t-8 18.5t8 18.5t18 7.5t18 -7.5t8 -18.5t-8 -18.5t-18 -7.5zM420 851q-10 0 -18 7.5t-8 18.5t8 18.5t18 7.5t18 -7.5t8 -18.5t-8 -18.5t-18 -7.5z
" />
    <glyph glyph-name="Aring" unicode="&#xc5;" horiz-adv-x="667" 
d="M17 0l306 724h21l306 -724h-25l-99 233h-386l-98 -233h-25zM333 690l-184 -435h368l-183 435h-1zM333 790q-47 0 -77 30.5t-30 76.5t30 76.5t77 30.5q46 0 76.5 -30.5t30.5 -76.5q0 -45 -30.5 -76t-76.5 -31zM333 809q38 0 62.5 25.5t24.5 62.5t-24.5 62.5t-62.5 25.5
t-62.5 -25.5t-24.5 -62.5t24.5 -62.5t62.5 -25.5z" />
    <glyph glyph-name="AE" unicode="&#xc6;" horiz-adv-x="914" 
d="M11 0l444 724h388v-22h-351v-315h312v-22h-312v-343h359v-22h-382v233h-290l-142 -233h-26zM467 702l-274 -447h276v447h-2z" />
    <glyph glyph-name="Ccedilla" unicode="&#xc7;" horiz-adv-x="687" 
d="M368 -76l19 67q-150 16 -241 120t-91 251q0 159 104.5 266t272.5 107q92 0 181 -41v-26q-81 45 -181 45q-158 0 -256 -100.5t-98 -250.5t98 -250.5t256 -100.5q109 0 196 51v-26q-85 -47 -196 -47q-17 0 -25 1l-13 -48q95 -17 95 -84q0 -35 -24 -57t-64 -22q-37 0 -71 17
l6 20q35 -16 66 -16q28 0 46 15t18 41q0 61 -98 68z" />
    <glyph glyph-name="Egrave" unicode="&#xc8;" horiz-adv-x="554" 
d="M100 0v724h383v-22h-360v-315h321v-22h-321v-343h368v-22h-391zM312 795l-100 164h25l96 -164h-21z" />
    <glyph glyph-name="Eacute" unicode="&#xc9;" horiz-adv-x="554" 
d="M100 0v724h383v-22h-360v-315h321v-22h-321v-343h368v-22h-391zM370 959l-100 -164h-21l96 164h25z" />
    <glyph glyph-name="Ecircumflex" unicode="&#xca;" horiz-adv-x="554" 
d="M100 0v724h383v-22h-360v-315h321v-22h-321v-343h368v-22h-391zM159 795l120 164h24l120 -164h-22l-110 148l-110 -148h-22z" />
    <glyph glyph-name="Edieresis" unicode="&#xcb;" horiz-adv-x="554" 
d="M100 0v724h383v-22h-360v-315h321v-22h-321v-343h368v-22h-391zM204 851q-10 0 -18 7.5t-8 18.5t8 18.5t18 7.5t18 -7.5t8 -18.5t-8 -18.5t-18 -7.5zM378 851q-10 0 -18 7.5t-8 18.5t8 18.5t18 7.5t18 -7.5t8 -18.5t-8 -18.5t-18 -7.5z" />
    <glyph glyph-name="Igrave" unicode="&#xcc;" horiz-adv-x="223" 
d="M100 0v724h23v-724h-23zM132 795l-100 164h25l96 -164h-21z" />
    <glyph glyph-name="Iacute" unicode="&#xcd;" horiz-adv-x="223" 
d="M100 0v724h23v-724h-23zM190 959l-100 -164h-21l96 164h25z" />
    <glyph glyph-name="Icircumflex" unicode="&#xce;" horiz-adv-x="223" 
d="M100 0v724h23v-724h-23zM-21 795l120 164h24l120 -164h-22l-110 148l-110 -148h-22z" />
    <glyph glyph-name="Idieresis" unicode="&#xcf;" horiz-adv-x="223" 
d="M100 0v724h23v-724h-23zM24 851q-10 0 -18 7.5t-8 18.5t8 18.5t18 7.5t18 -7.5t8 -18.5t-8 -18.5t-18 -7.5zM198 851q-10 0 -18 7.5t-8 18.5t8 18.5t18 7.5t18 -7.5t8 -18.5t-8 -18.5t-18 -7.5z" />
    <glyph glyph-name="Eth" unicode="&#xd0;" horiz-adv-x="746" 
d="M7 358v21h100v345h169q193 0 296 -90q56 -49 89 -119.5t33 -150.5q0 -74 -28.5 -141.5t-74.5 -114.5q-106 -108 -315 -108h-169v358h-100zM130 22h146q198 0 298 100q97 97 97 240q0 75 -30 142t-84 114q-96 84 -281 84h-146v-323h188v-21h-188v-336z" />
    <glyph glyph-name="Ntilde" unicode="&#xd1;" horiz-adv-x="758" 
d="M100 0v724h23l511 -684h1v684h23v-724h-23l-511 684h-1v-684h-23zM373 873q-42 27 -66 27q-44 0 -74 -54h-2v27q28 47 77 47q29 0 77 -31q42 -27 66 -27q44 0 74 54h2v-27q-28 -47 -77 -47q-29 0 -77 31z" />
    <glyph glyph-name="Ograve" unicode="&#xd2;" horiz-adv-x="832" 
d="M55 362q0 157 103.5 265t257.5 108t257.5 -108t103.5 -265t-103.5 -265t-257.5 -108t-257.5 108t-103.5 265zM78 362q0 -148 96.5 -249.5t241.5 -101.5t241.5 101.5t96.5 249.5t-96.5 249.5t-241.5 101.5t-241.5 -101.5t-96.5 -249.5zM437 795l-100 164h25l96 -164h-21z
" />
    <glyph glyph-name="Oacute" unicode="&#xd3;" horiz-adv-x="832" 
d="M55 362q0 157 103.5 265t257.5 108t257.5 -108t103.5 -265t-103.5 -265t-257.5 -108t-257.5 108t-103.5 265zM78 362q0 -148 96.5 -249.5t241.5 -101.5t241.5 101.5t96.5 249.5t-96.5 249.5t-241.5 101.5t-241.5 -101.5t-96.5 -249.5zM495 959l-100 -164h-21l96 164h25z
" />
    <glyph glyph-name="Ocircumflex" unicode="&#xd4;" horiz-adv-x="832" 
d="M55 362q0 157 103.5 265t257.5 108t257.5 -108t103.5 -265t-103.5 -265t-257.5 -108t-257.5 108t-103.5 265zM78 362q0 -148 96.5 -249.5t241.5 -101.5t241.5 101.5t96.5 249.5t-96.5 249.5t-241.5 101.5t-241.5 -101.5t-96.5 -249.5zM284 795l120 164h24l120 -164h-22
l-110 148l-110 -148h-22z" />
    <glyph glyph-name="Otilde" unicode="&#xd5;" horiz-adv-x="832" 
d="M55 362q0 157 103.5 265t257.5 108t257.5 -108t103.5 -265t-103.5 -265t-257.5 -108t-257.5 108t-103.5 265zM78 362q0 -148 96.5 -249.5t241.5 -101.5t241.5 101.5t96.5 249.5t-96.5 249.5t-241.5 101.5t-241.5 -101.5t-96.5 -249.5zM410 873q-42 27 -66 27
q-44 0 -74 -54h-2v27q28 47 77 47q29 0 77 -31q42 -27 66 -27q44 0 74 54h2v-27q-28 -47 -77 -47q-29 0 -77 31z" />
    <glyph glyph-name="Odieresis" unicode="&#xd6;" horiz-adv-x="832" 
d="M55 362q0 157 103.5 265t257.5 108t257.5 -108t103.5 -265t-103.5 -265t-257.5 -108t-257.5 108t-103.5 265zM78 362q0 -148 96.5 -249.5t241.5 -101.5t241.5 101.5t96.5 249.5t-96.5 249.5t-241.5 101.5t-241.5 -101.5t-96.5 -249.5zM329 851q-11 0 -18.5 7.5t-7.5 18.5
t7.5 18.5t18.5 7.5t18.5 -7.5t7.5 -18.5t-7.5 -18.5t-18.5 -7.5zM503 851q-11 0 -18.5 7.5t-7.5 18.5t7.5 18.5t18.5 7.5t18.5 -7.5t7.5 -18.5t-7.5 -18.5t-18.5 -7.5z" />
    <glyph glyph-name="multiply" unicode="&#xd7;" horiz-adv-x="578" 
d="M107 165l-14 14l182 182l-182 182l14 14l182 -182l182 182l14 -14l-182 -182l182 -182l-14 -14l-182 182z" />
    <glyph glyph-name="Oslash" unicode="&#xd8;" horiz-adv-x="832" 
d="M78 362q0 -159 108 -261l444 536q-90 76 -214 76q-145 0 -241.5 -101.5t-96.5 -249.5zM55 362q0 157 103.5 265t257.5 108q131 0 228 -81l66 79l16 -13l-66 -80q117 -111 117 -278q0 -157 -103.5 -265t-257.5 -108q-131 0 -228 81l-66 -79l-16 13l66 80q-55 52 -86 124
t-31 154zM754 362q0 159 -108 261l-444 -536q90 -76 214 -76q145 0 241.5 101.5t96.5 249.5z" />
    <glyph glyph-name="Ugrave" unicode="&#xd9;" horiz-adv-x="716" 
d="M170 55q-44 44 -61.5 112t-17.5 180v377h23v-377q0 -107 16.5 -172.5t57.5 -105.5q60 -58 170 -58q132 0 193 84q29 40 40.5 98.5t11.5 153.5v377h22v-377q0 -97 -12 -157.5t-42 -104.5q-66 -97 -213 -97q-121 0 -188 67zM379 795l-100 164h25l96 -164h-21z" />
    <glyph glyph-name="Uacute" unicode="&#xda;" horiz-adv-x="716" 
d="M170 55q-44 44 -61.5 112t-17.5 180v377h23v-377q0 -107 16.5 -172.5t57.5 -105.5q60 -58 170 -58q132 0 193 84q29 40 40.5 98.5t11.5 153.5v377h22v-377q0 -97 -12 -157.5t-42 -104.5q-66 -97 -213 -97q-121 0 -188 67zM437 959l-100 -164h-21l96 164h25z" />
    <glyph glyph-name="Ucircumflex" unicode="&#xdb;" horiz-adv-x="716" 
d="M170 55q-44 44 -61.5 112t-17.5 180v377h23v-377q0 -107 16.5 -172.5t57.5 -105.5q60 -58 170 -58q132 0 193 84q29 40 40.5 98.5t11.5 153.5v377h22v-377q0 -97 -12 -157.5t-42 -104.5q-66 -97 -213 -97q-121 0 -188 67zM226 795l120 164h24l120 -164h-22l-110 148
l-110 -148h-22z" />
    <glyph glyph-name="Udieresis" unicode="&#xdc;" horiz-adv-x="716" 
d="M170 55q-44 44 -61.5 112t-17.5 180v377h23v-377q0 -107 16.5 -172.5t57.5 -105.5q60 -58 170 -58q132 0 193 84q29 40 40.5 98.5t11.5 153.5v377h22v-377q0 -97 -12 -157.5t-42 -104.5q-66 -97 -213 -97q-121 0 -188 67zM271 851q-11 0 -18.5 7.5t-7.5 18.5t7.5 18.5
t18.5 7.5t18.5 -7.5t7.5 -18.5t-7.5 -18.5t-18.5 -7.5zM445 851q-11 0 -18.5 7.5t-7.5 18.5t7.5 18.5t18.5 7.5t18.5 -7.5t7.5 -18.5t-7.5 -18.5t-18.5 -7.5z" />
    <glyph glyph-name="Yacute" unicode="&#xdd;" horiz-adv-x="631" 
d="M304 0v328l-281 396h27l265 -374h1l265 374h27l-281 -396v-328h-23zM395 959l-100 -164h-21l96 164h25z" />
    <glyph glyph-name="Thorn" unicode="&#xde;" horiz-adv-x="612" 
d="M100 0v724h23v-159h166q142 0 209 -54q69 -56 69 -149t-69 -148q-67 -53 -210 -53h-165v-161h-23zM123 183h166q134 0 194 49q61 50 61 132q0 81 -61 130t-194 49h-166v-360z" />
    <glyph glyph-name="germandbls" unicode="&#xdf;" horiz-adv-x="606" 
d="M97 0v607q0 81 47 123q49 45 144 45t144 -45q47 -42 47 -123q0 -44 -12 -83q-91 0 -141 -19q-80 -30 -80 -107q0 -48 33 -74.5t104 -48.5q31 -9 48.5 -15t43 -19t39 -27t24 -36.5t10.5 -50.5q0 -63 -45 -99.5t-120 -36.5q-93 0 -156 42v28q68 -48 159 -48q61 0 100 30
t39 84q0 28 -10 48t-33.5 35t-44.5 23.5t-60 20.5t-61 21.5t-46.5 25.5t-35.5 39t-11 55q0 91 91 127q56 22 136 22q6 32 6 61q0 69 -39 108q-41 40 -129 40t-129 -40q-39 -39 -39 -108v-605h-23z" />
    <glyph glyph-name="agrave" unicode="&#xe0;" horiz-adv-x="524" 
d="M218 -11q-68 0 -113 33q-50 36 -50 101q0 72 57 109q49 32 133 32q65 0 151 -24v77q0 49 -9 77.5t-35 50.5q-43 36 -112 36q-84 0 -151 -48v25q66 45 151 45q78 0 128 -40q51 -42 51 -139v-212q0 -48 13 -72.5t51 -24.5q20 0 36 8v-23q-17 -7 -38 -7q-68 0 -82 67h-1
q-83 -71 -180 -71zM218 11q99 0 178 74v133q-83 25 -151 25q-70 0 -118.5 -27.5t-48.5 -89.5q0 -58 41.5 -86.5t98.5 -28.5zM279 563l-100 164h25l96 -164h-21z" />
    <glyph glyph-name="aacute" unicode="&#xe1;" horiz-adv-x="524" 
d="M218 -11q-68 0 -113 33q-50 36 -50 101q0 72 57 109q49 32 133 32q65 0 151 -24v77q0 49 -9 77.5t-35 50.5q-43 36 -112 36q-84 0 -151 -48v25q66 45 151 45q78 0 128 -40q51 -42 51 -139v-212q0 -48 13 -72.5t51 -24.5q20 0 36 8v-23q-17 -7 -38 -7q-68 0 -82 67h-1
q-83 -71 -180 -71zM218 11q99 0 178 74v133q-83 25 -151 25q-70 0 -118.5 -27.5t-48.5 -89.5q0 -58 41.5 -86.5t98.5 -28.5zM337 727l-100 -164h-21l96 164h25z" />
    <glyph glyph-name="acircumflex" unicode="&#xe2;" horiz-adv-x="524" 
d="M218 -11q-68 0 -113 33q-50 36 -50 101q0 72 57 109q49 32 133 32q65 0 151 -24v77q0 49 -9 77.5t-35 50.5q-43 36 -112 36q-84 0 -151 -48v25q66 45 151 45q78 0 128 -40q51 -42 51 -139v-212q0 -48 13 -72.5t51 -24.5q20 0 36 8v-23q-17 -7 -38 -7q-68 0 -82 67h-1
q-83 -71 -180 -71zM218 11q99 0 178 74v133q-83 25 -151 25q-70 0 -118.5 -27.5t-48.5 -89.5q0 -58 41.5 -86.5t98.5 -28.5zM126 563l120 164h24l120 -164h-22l-110 148l-110 -148h-22z" />
    <glyph glyph-name="atilde" unicode="&#xe3;" horiz-adv-x="524" 
d="M218 -11q-68 0 -113 33q-50 36 -50 101q0 72 57 109q49 32 133 32q65 0 151 -24v77q0 49 -9 77.5t-35 50.5q-43 36 -112 36q-84 0 -151 -48v25q66 45 151 45q78 0 128 -40q51 -42 51 -139v-212q0 -48 13 -72.5t51 -24.5q20 0 36 8v-23q-17 -7 -38 -7q-68 0 -82 67h-1
q-83 -71 -180 -71zM218 11q99 0 178 74v133q-83 25 -151 25q-70 0 -118.5 -27.5t-48.5 -89.5q0 -58 41.5 -86.5t98.5 -28.5zM252 641q-42 27 -66 27q-44 0 -74 -54h-2v27q28 47 77 47q29 0 77 -31q42 -27 66 -27q44 0 74 54h2v-27q-28 -47 -77 -47q-29 0 -77 31z" />
    <glyph glyph-name="adieresis" unicode="&#xe4;" horiz-adv-x="524" 
d="M218 -11q-68 0 -113 33q-50 36 -50 101q0 72 57 109q49 32 133 32q65 0 151 -24v77q0 49 -9 77.5t-35 50.5q-43 36 -112 36q-84 0 -151 -48v25q66 45 151 45q78 0 128 -40q51 -42 51 -139v-212q0 -48 13 -72.5t51 -24.5q20 0 36 8v-23q-17 -7 -38 -7q-68 0 -82 67h-1
q-83 -71 -180 -71zM218 11q99 0 178 74v133q-83 25 -151 25q-70 0 -118.5 -27.5t-48.5 -89.5q0 -58 41.5 -86.5t98.5 -28.5zM171 619q-11 0 -18.5 7.5t-7.5 18.5t7.5 18.5t18.5 7.5t18.5 -7.5t7.5 -18.5t-7.5 -18.5t-18.5 -7.5zM345 619q-11 0 -18.5 7.5t-7.5 18.5t7.5 18.5
t18.5 7.5t18.5 -7.5t7.5 -18.5t-7.5 -18.5t-18.5 -7.5z" />
    <glyph glyph-name="aring" unicode="&#xe5;" horiz-adv-x="524" 
d="M218 -11q-68 0 -113 33q-50 36 -50 101q0 72 57 109q49 32 133 32q65 0 151 -24v77q0 49 -9 77.5t-35 50.5q-43 36 -112 36q-84 0 -151 -48v25q66 45 151 45q78 0 128 -40q51 -42 51 -139v-212q0 -48 13 -72.5t51 -24.5q20 0 36 8v-23q-17 -7 -38 -7q-68 0 -82 67h-1
q-83 -71 -180 -71zM218 11q99 0 178 74v133q-83 25 -151 25q-70 0 -118.5 -27.5t-48.5 -89.5q0 -58 41.5 -86.5t98.5 -28.5zM258 558q-47 0 -77 30.5t-30 76.5t30 76.5t77 30.5q46 0 76.5 -30.5t30.5 -76.5q0 -45 -30.5 -76t-76.5 -31zM258 577q38 0 62.5 25.5t24.5 62.5
t-24.5 62.5t-62.5 25.5t-62.5 -25.5t-24.5 -62.5t24.5 -62.5t62.5 -25.5z" />
    <glyph glyph-name="ae" unicode="&#xe6;" horiz-adv-x="892" 
d="M627 481q-79 0 -142.5 -59t-69.5 -157h400v11q0 57 -18.5 99.5t-48.5 64t-60.5 31.5t-60.5 10zM645 -11q-132 0 -203 98q-104 -98 -224 -98q-68 0 -113 33q-50 36 -50 101q0 72 57 109q49 32 133 32q60 0 147 -23v76q0 49 -9 77.5t-34 50.5q-42 36 -109 36
q-84 0 -151 -48v25q66 45 151 45q77 0 125 -40q42 -35 48 -102h2q27 64 84.5 103t128.5 39q89 0 149.5 -60.5t60.5 -163.5q0 -16 -2 -36h-421q1 -103 66.5 -167.5t168.5 -64.5q88 0 157 52v-27q-71 -47 -162 -47zM218 11q116 0 212 93q-33 55 -37 115q-84 24 -148 24
q-70 0 -118.5 -27.5t-48.5 -89.5q0 -58 41.5 -86.5t98.5 -28.5z" />
    <glyph glyph-name="ccedilla" unicode="&#xe7;" horiz-adv-x="515" 
d="M268 -76l19 66q-103 7 -167 79t-64 176q0 111 71 184.5t184 73.5q71 0 133 -32v-26q-64 36 -133 36q-102 0 -167 -67t-65 -169t65 -168t165 -66q81 0 142 41v-27q-65 -36 -144 -36l-13 -47q95 -17 95 -84q0 -35 -24 -57t-64 -22q-37 0 -71 17l6 20q35 -16 66 -16
q28 0 46 15t18 41q0 61 -98 68z" />
    <glyph glyph-name="egrave" unicode="&#xe8;" horiz-adv-x="559" 
d="M503 243h-424q1 -100 65.5 -166t167.5 -66q91 0 162 52v-27q-72 -47 -163 -47q-111 0 -183 72t-72 185q0 111 68.5 184t168.5 73q90 0 151 -60.5t61 -163.5q0 -16 -2 -36zM292 481q-81 0 -143.5 -58.5t-68.5 -157.5h402v11q0 57 -19 99.5t-49 64t-60.5 31.5t-61.5 10z
M306 563l-100 164h25l96 -164h-21z" />
    <glyph glyph-name="eacute" unicode="&#xe9;" horiz-adv-x="559" 
d="M503 243h-424q1 -100 65.5 -166t167.5 -66q91 0 162 52v-27q-72 -47 -163 -47q-111 0 -183 72t-72 185q0 111 68.5 184t168.5 73q90 0 151 -60.5t61 -163.5q0 -16 -2 -36zM292 481q-81 0 -143.5 -58.5t-68.5 -157.5h402v11q0 57 -19 99.5t-49 64t-60.5 31.5t-61.5 10z
M364 727l-100 -164h-21l96 164h25z" />
    <glyph glyph-name="ecircumflex" unicode="&#xea;" horiz-adv-x="559" 
d="M503 243h-424q1 -100 65.5 -166t167.5 -66q91 0 162 52v-27q-72 -47 -163 -47q-111 0 -183 72t-72 185q0 111 68.5 184t168.5 73q90 0 151 -60.5t61 -163.5q0 -16 -2 -36zM292 481q-81 0 -143.5 -58.5t-68.5 -157.5h402v11q0 57 -19 99.5t-49 64t-60.5 31.5t-61.5 10z
M153 563l120 164h24l120 -164h-22l-110 148l-110 -148h-22z" />
    <glyph glyph-name="edieresis" unicode="&#xeb;" horiz-adv-x="559" 
d="M503 243h-424q1 -100 65.5 -166t167.5 -66q91 0 162 52v-27q-72 -47 -163 -47q-111 0 -183 72t-72 185q0 111 68.5 184t168.5 73q90 0 151 -60.5t61 -163.5q0 -16 -2 -36zM292 481q-81 0 -143.5 -58.5t-68.5 -157.5h402v11q0 57 -19 99.5t-49 64t-60.5 31.5t-61.5 10z
M198 619q-10 0 -18 7.5t-8 18.5t8 18.5t18 7.5t18 -7.5t8 -18.5t-8 -18.5t-18 -7.5zM372 619q-10 0 -18 7.5t-8 18.5t8 18.5t18 7.5t18 -7.5t8 -18.5t-8 -18.5t-18 -7.5z" />
    <glyph glyph-name="igrave" unicode="&#xec;" horiz-adv-x="217" 
d="M97 0v492h23v-492h-23zM129 563l-100 164h25l96 -164h-21z" />
    <glyph glyph-name="iacute" unicode="&#xed;" horiz-adv-x="217" 
d="M97 0v492h23v-492h-23zM187 727l-100 -164h-21l96 164h25z" />
    <glyph glyph-name="icircumflex" unicode="&#xee;" horiz-adv-x="217" 
d="M97 0v492h23v-492h-23zM-24 563l120 164h24l120 -164h-22l-110 148l-110 -148h-22z" />
    <glyph glyph-name="idieresis" unicode="&#xef;" horiz-adv-x="217" 
d="M97 0v492h23v-492h-23zM21 619q-11 0 -18.5 7.5t-7.5 18.5t7.5 18.5t18.5 7.5t18.5 -7.5t7.5 -18.5t-7.5 -18.5t-18.5 -7.5zM195 619q-11 0 -18.5 7.5t-7.5 18.5t7.5 18.5t18.5 7.5t18.5 -7.5t7.5 -18.5t-7.5 -18.5t-18.5 -7.5z" />
    <glyph glyph-name="eth" unicode="&#xf0;" horiz-adv-x="586" 
d="M185 577l-6 21l139 52q-56 47 -133 82l14 18q76 -34 143 -91l92 35l6 -21l-81 -30q86 -82 132 -188t46 -203q0 -126 -71.5 -194.5t-173.5 -68.5q-105 0 -173.5 70.5t-68.5 179.5q0 108 68.5 177.5t173.5 69.5q63 0 116.5 -26.5t84.5 -74.5l1 1q-49 148 -158 248zM73 238
q0 -99 61.5 -162.5t158.5 -63.5q100 0 160.5 67.5t60.5 165.5q0 102 -66 160.5t-157 58.5q-96 0 -157 -64t-61 -162z" />
    <glyph glyph-name="ntilde" unicode="&#xf1;" horiz-adv-x="592" 
d="M97 0v492h23v-78l1 -1q103 90 208 90q77 0 122 -45q46 -46 46 -149v-309h-23v305q0 96 -40 137q-37 39 -106 39q-103 0 -208 -95v-386h-23zM290 641q-42 27 -66 27q-44 0 -74 -54h-2v27q28 47 77 47q29 0 77 -31q42 -27 66 -27q44 0 74 54h2v-27q-28 -47 -77 -47
q-29 0 -77 31z" />
    <glyph glyph-name="ograve" unicode="&#xf2;" horiz-adv-x="610" 
d="M56 246q0 109 71 183t178 74t178 -74t71 -183t-71 -183t-178 -74t-178 74t-71 183zM79 246q0 -101 64.5 -168t161.5 -67t161.5 67t64.5 168t-64.5 168t-161.5 67t-161.5 -67t-64.5 -168zM326 563l-100 164h25l96 -164h-21z" />
    <glyph glyph-name="oacute" unicode="&#xf3;" horiz-adv-x="610" 
d="M56 246q0 109 71 183t178 74t178 -74t71 -183t-71 -183t-178 -74t-178 74t-71 183zM79 246q0 -101 64.5 -168t161.5 -67t161.5 67t64.5 168t-64.5 168t-161.5 67t-161.5 -67t-64.5 -168zM384 727l-100 -164h-21l96 164h25z" />
    <glyph glyph-name="ocircumflex" unicode="&#xf4;" horiz-adv-x="610" 
d="M56 246q0 109 71 183t178 74t178 -74t71 -183t-71 -183t-178 -74t-178 74t-71 183zM79 246q0 -101 64.5 -168t161.5 -67t161.5 67t64.5 168t-64.5 168t-161.5 67t-161.5 -67t-64.5 -168zM173 563l120 164h24l120 -164h-22l-110 148l-110 -148h-22z" />
    <glyph glyph-name="otilde" unicode="&#xf5;" horiz-adv-x="610" 
d="M56 246q0 109 71 183t178 74t178 -74t71 -183t-71 -183t-178 -74t-178 74t-71 183zM79 246q0 -101 64.5 -168t161.5 -67t161.5 67t64.5 168t-64.5 168t-161.5 67t-161.5 -67t-64.5 -168zM299 641q-42 27 -66 27q-44 0 -74 -54h-2v27q28 47 77 47q29 0 77 -31
q42 -27 66 -27q44 0 74 54h2v-27q-28 -47 -77 -47q-29 0 -77 31z" />
    <glyph glyph-name="odieresis" unicode="&#xf6;" horiz-adv-x="610" 
d="M56 246q0 109 71 183t178 74t178 -74t71 -183t-71 -183t-178 -74t-178 74t-71 183zM79 246q0 -101 64.5 -168t161.5 -67t161.5 67t64.5 168t-64.5 168t-161.5 67t-161.5 -67t-64.5 -168zM218 619q-10 0 -18 7.5t-8 18.5t8 18.5t18 7.5t18 -7.5t8 -18.5t-8 -18.5t-18 -7.5
zM392 619q-10 0 -18 7.5t-8 18.5t8 18.5t18 7.5t18 -7.5t8 -18.5t-8 -18.5t-18 -7.5z" />
    <glyph glyph-name="divide" unicode="&#xf7;" horiz-adv-x="578" 
d="M256 586q0 14 10 23.5t23 9.5t23 -9.5t10 -23.5t-10 -23.5t-23 -9.5t-23 9.5t-10 23.5zM54 352v21h470v-21h-470zM256 139q0 13 10 23t23 10t23 -10t10 -23t-10 -23t-23 -10t-23 10t-10 23z" />
    <glyph glyph-name="oslash" unicode="&#xf8;" horiz-adv-x="610" 
d="M79 246q0 -106 69 -173l298 359q-60 49 -141 49q-97 0 -161.5 -67t-64.5 -168zM56 246q0 109 71 183t178 74q89 0 156 -54l43 52l16 -13l-43 -52q77 -75 77 -190q0 -109 -71 -183t-178 -74q-89 0 -156 54l-43 -52l-16 13l43 52q-77 75 -77 190zM531 246q0 106 -69 173
l-298 -359q60 -49 141 -49q97 0 161.5 67t64.5 168z" />
    <glyph glyph-name="ugrave" unicode="&#xf9;" horiz-adv-x="590" 
d="M138 37q-44 48 -44 162v293h23v-288q0 -111 39 -153q37 -40 109 -40q103 0 206 98v383h23v-492h-23v81h-1q-98 -92 -209 -92q-79 0 -123 48zM316 563l-100 164h25l96 -164h-21z" />
    <glyph glyph-name="uacute" unicode="&#xfa;" horiz-adv-x="590" 
d="M138 37q-44 48 -44 162v293h23v-288q0 -111 39 -153q37 -40 109 -40q103 0 206 98v383h23v-492h-23v81h-1q-98 -92 -209 -92q-79 0 -123 48zM374 727l-100 -164h-21l96 164h25z" />
    <glyph glyph-name="ucircumflex" unicode="&#xfb;" horiz-adv-x="590" 
d="M138 37q-44 48 -44 162v293h23v-288q0 -111 39 -153q37 -40 109 -40q103 0 206 98v383h23v-492h-23v81h-1q-98 -92 -209 -92q-79 0 -123 48zM163 563l120 164h24l120 -164h-22l-110 148l-110 -148h-22z" />
    <glyph glyph-name="udieresis" unicode="&#xfc;" horiz-adv-x="590" 
d="M138 37q-44 48 -44 162v293h23v-288q0 -111 39 -153q37 -40 109 -40q103 0 206 98v383h23v-492h-23v81h-1q-98 -92 -209 -92q-79 0 -123 48zM208 619q-10 0 -18 7.5t-8 18.5t8 18.5t18 7.5t18 -7.5t8 -18.5t-8 -18.5t-18 -7.5zM382 619q-10 0 -18 7.5t-8 18.5t8 18.5
t18 7.5t18 -7.5t8 -18.5t-8 -18.5t-18 -7.5z" />
    <glyph glyph-name="yacute" unicode="&#xfd;" horiz-adv-x="528" 
d="M142 -220h-25l135 274l-212 438h24l199 -413h1l200 413h24zM343 727l-100 -164h-21l96 164h25z" />
    <glyph glyph-name="thorn" unicode="&#xfe;" horiz-adv-x="587" 
d="M97 -220v984h23v-332l1 -1q78 72 176 72q103 0 169 -72.5t66 -183.5t-67.5 -184.5t-176.5 -73.5q-89 0 -167 52l-1 -1v-260h-23zM120 403v-336q79 -56 169 -56q99 0 159.5 67.5t60.5 169.5q0 101 -59.5 167t-153.5 66q-104 0 -176 -78z" />
    <glyph glyph-name="ydieresis" unicode="&#xff;" horiz-adv-x="528" 
d="M142 -220h-25l135 274l-212 438h24l199 -413h1l200 413h24zM177 619q-11 0 -18.5 7.5t-7.5 18.5t7.5 18.5t18.5 7.5t18.5 -7.5t7.5 -18.5t-7.5 -18.5t-18.5 -7.5zM351 619q-11 0 -18.5 7.5t-7.5 18.5t7.5 18.5t18.5 7.5t18.5 -7.5t7.5 -18.5t-7.5 -18.5t-18.5 -7.5z" />
    <glyph glyph-name="Amacron" unicode="&#x100;" horiz-adv-x="667" 
d="M17 0l306 724h21l306 -724h-25l-99 233h-386l-98 -233h-25zM333 690l-184 -435h368l-183 435h-1zM207 867v20h252v-20h-252z" />
    <glyph glyph-name="amacron" unicode="&#x101;" horiz-adv-x="524" 
d="M218 -11q-68 0 -113 33q-50 36 -50 101q0 72 57 109q49 32 133 32q65 0 151 -24v77q0 49 -9 77.5t-35 50.5q-43 36 -112 36q-84 0 -151 -48v25q66 45 151 45q78 0 128 -40q51 -42 51 -139v-212q0 -48 13 -72.5t51 -24.5q20 0 36 8v-23q-17 -7 -38 -7q-68 0 -82 67h-1
q-83 -71 -180 -71zM218 11q99 0 178 74v133q-83 25 -151 25q-70 0 -118.5 -27.5t-48.5 -89.5q0 -58 41.5 -86.5t98.5 -28.5zM132 635v20h252v-20h-252z" />
    <glyph glyph-name="Abreve" unicode="&#x102;" horiz-adv-x="667" 
d="M17 0l306 724h21l306 -724h-25l-99 233h-386l-98 -233h-25zM333 690l-184 -435h368l-183 435h-1zM333 807q-59 0 -91 39.5t-34 96.5h19q4 -51 29.5 -84t76.5 -33t76.5 33t29.5 84h19q-2 -57 -34 -96.5t-91 -39.5z" />
    <glyph glyph-name="abreve" unicode="&#x103;" horiz-adv-x="524" 
d="M218 -11q-68 0 -113 33q-50 36 -50 101q0 72 57 109q49 32 133 32q65 0 151 -24v77q0 49 -9 77.5t-35 50.5q-43 36 -112 36q-84 0 -151 -48v25q66 45 151 45q78 0 128 -40q51 -42 51 -139v-212q0 -48 13 -72.5t51 -24.5q20 0 36 8v-23q-17 -7 -38 -7q-68 0 -82 67h-1
q-83 -71 -180 -71zM218 11q99 0 178 74v133q-83 25 -151 25q-70 0 -118.5 -27.5t-48.5 -89.5q0 -58 41.5 -86.5t98.5 -28.5zM258 575q-59 0 -91 39.5t-34 96.5h19q4 -51 29.5 -84t76.5 -33t76.5 33t29.5 84h19q-2 -57 -34 -96.5t-91 -39.5z" />
    <glyph glyph-name="Aogonek" unicode="&#x104;" horiz-adv-x="667" 
d="M17 0l306 724h21l306 -724q-88 -74 -88 -146q0 -32 17 -47.5t43 -15.5q19 0 38 7v-23q-16 -6 -36 -6q-40 0 -62.5 23.5t-22.5 60.5q0 71 85 149l-98 231h-386l-98 -233h-25zM333 690l-184 -435h368l-183 435h-1z" />
    <glyph glyph-name="aogonek" unicode="&#x105;" horiz-adv-x="524" 
d="M218 -11q-68 0 -113 33q-50 36 -50 101q0 72 57 109q49 32 133 32q65 0 151 -24v77q0 49 -9 77.5t-35 50.5q-43 36 -112 36q-84 0 -151 -48v25q66 45 151 45q78 0 128 -40q51 -42 51 -139v-212q0 -48 13 -72.5t51 -24.5q20 0 36 8v-23q-69 -30 -106 -69t-37 -80
q0 -29 17 -44.5t43 -15.5q19 0 38 7v-23q-16 -6 -36 -6q-40 0 -62.5 23.5t-22.5 58.5q0 39 30.5 78t80.5 64v1q-53 9 -65 66h-1q-83 -71 -180 -71zM218 11q99 0 178 74v133q-83 25 -151 25q-70 0 -118.5 -27.5t-48.5 -89.5q0 -58 41.5 -86.5t98.5 -28.5z" />
    <glyph glyph-name="Cacute" unicode="&#x106;" horiz-adv-x="687" 
d="M55 362q0 159 104.5 266t272.5 107q92 0 181 -41v-26q-81 45 -181 45q-158 0 -256 -100.5t-98 -250.5t98 -250.5t256 -100.5q109 0 196 51v-26q-85 -47 -196 -47q-167 0 -272 107t-105 266zM522 959l-100 -164h-21l96 164h25z" />
    <glyph glyph-name="cacute" unicode="&#x107;" horiz-adv-x="515" 
d="M56 245q0 111 71 184.5t184 73.5q71 0 133 -32v-26q-64 36 -133 36q-102 0 -167 -67t-65 -169t65 -168t165 -66q81 0 142 41v-27q-65 -36 -143 -36q-111 0 -181.5 73t-70.5 183zM396 727l-100 -164h-21l96 164h25z" />
    <glyph glyph-name="Ccircumflex" unicode="&#x108;" horiz-adv-x="687" 
d="M55 362q0 159 104.5 266t272.5 107q92 0 181 -41v-26q-81 45 -181 45q-158 0 -256 -100.5t-98 -250.5t98 -250.5t256 -100.5q109 0 196 51v-26q-85 -47 -196 -47q-167 0 -272 107t-105 266zM261 795l120 164h24l120 -164h-22l-110 148l-110 -148h-22z" />
    <glyph glyph-name="ccircumflex" unicode="&#x109;" horiz-adv-x="515" 
d="M56 245q0 111 71 184.5t184 73.5q71 0 133 -32v-26q-64 36 -133 36q-102 0 -167 -67t-65 -169t65 -168t165 -66q81 0 142 41v-27q-65 -36 -143 -36q-111 0 -181.5 73t-70.5 183zM155 563l120 164h24l120 -164h-22l-110 148l-110 -148h-22z" />
    <glyph glyph-name="Cdotaccent" unicode="&#x10a;" horiz-adv-x="687" 
d="M55 362q0 159 104.5 266t272.5 107q92 0 181 -41v-26q-81 45 -181 45q-158 0 -256 -100.5t-98 -250.5t98 -250.5t256 -100.5q109 0 196 51v-26q-85 -47 -196 -47q-167 0 -272 107t-105 266zM393 851q-11 0 -18.5 7.5t-7.5 18.5t7.5 18.5t18.5 7.5t18.5 -7.5t7.5 -18.5
t-7.5 -18.5t-18.5 -7.5z" />
    <glyph glyph-name="cdotaccent" unicode="&#x10b;" horiz-adv-x="515" 
d="M56 245q0 111 71 184.5t184 73.5q71 0 133 -32v-26q-64 36 -133 36q-102 0 -167 -67t-65 -169t65 -168t165 -66q81 0 142 41v-27q-65 -36 -143 -36q-111 0 -181.5 73t-70.5 183zM287 619q-11 0 -18.5 7.5t-7.5 18.5t7.5 18.5t18.5 7.5t18.5 -7.5t7.5 -18.5t-7.5 -18.5
t-18.5 -7.5z" />
    <glyph glyph-name="Ccaron" unicode="&#x10c;" horiz-adv-x="687" 
d="M55 362q0 159 104.5 266t272.5 107q92 0 181 -41v-26q-81 45 -181 45q-158 0 -256 -100.5t-98 -250.5t98 -250.5t256 -100.5q109 0 196 51v-26q-85 -47 -196 -47q-167 0 -272 107t-105 266zM525 959l-120 -164h-24l-120 164h22l110 -148l110 148h22z" />
    <glyph glyph-name="ccaron" unicode="&#x10d;" horiz-adv-x="515" 
d="M56 245q0 111 71 184.5t184 73.5q71 0 133 -32v-26q-64 36 -133 36q-102 0 -167 -67t-65 -169t65 -168t165 -66q81 0 142 41v-27q-65 -36 -143 -36q-111 0 -181.5 73t-70.5 183zM419 727l-120 -164h-24l-120 164h22l110 -148l110 148h22z" />
    <glyph glyph-name="Dcaron" unicode="&#x10e;" horiz-adv-x="739" 
d="M100 0v724h169q193 0 296 -90q56 -49 89 -119.5t33 -150.5q0 -74 -28.5 -141.5t-74.5 -114.5q-106 -108 -315 -108h-169zM123 22h146q198 0 298 100q97 97 97 240q0 75 -30 142t-84 114q-96 84 -281 84h-146v-680zM471 959l-120 -164h-24l-120 164h22l110 -148l110 148
h22z" />
    <glyph glyph-name="dcaron" unicode="&#x10f;" horiz-adv-x="654" 
d="M55 236q0 111 66 189t181 78q80 0 163 -47l1 1v307h23v-764h-23v66h-1q-31 -35 -78 -56t-101 -21q-99 0 -165 68.5t-66 178.5zM78 238q0 -100 58 -163.5t152 -63.5q109 0 178 85v334q-79 51 -163 51q-102 0 -163.5 -70t-61.5 -173zM629 764h24l-67 -218h-19z" />
    <glyph glyph-name="Dcroat" unicode="&#x110;" horiz-adv-x="746" 
d="M7 358v21h100v345h169q193 0 296 -90q56 -49 89 -119.5t33 -150.5q0 -74 -28.5 -141.5t-74.5 -114.5q-106 -108 -315 -108h-169v358h-100zM130 22h146q198 0 298 100q97 97 97 240q0 75 -30 142t-84 114q-96 84 -281 84h-146v-323h188v-21h-188v-336z" />
    <glyph glyph-name="dcroat" unicode="&#x111;" horiz-adv-x="586" 
d="M257 611v21h209v132h23v-132h75v-21h-75v-611h-23v64l-2 1q-69 -76 -178 -76q-99 0 -165 68.5t-66 178.5q0 111 66 189t181 78q78 0 162 -46l2 1v153h-209zM78 238q0 -100 58 -163.5t152 -63.5q109 0 178 85v334q-79 51 -163 51q-102 0 -163.5 -70t-61.5 -173z" />
    <glyph glyph-name="Emacron" unicode="&#x112;" horiz-adv-x="554" 
d="M100 0v724h383v-22h-360v-315h321v-22h-321v-343h368v-22h-391zM165 867v20h252v-20h-252z" />
    <glyph glyph-name="emacron" unicode="&#x113;" horiz-adv-x="559" 
d="M503 243h-424q1 -100 65.5 -166t167.5 -66q91 0 162 52v-27q-72 -47 -163 -47q-111 0 -183 72t-72 185q0 111 68.5 184t168.5 73q90 0 151 -60.5t61 -163.5q0 -16 -2 -36zM292 481q-81 0 -143.5 -58.5t-68.5 -157.5h402v11q0 57 -19 99.5t-49 64t-60.5 31.5t-61.5 10z
M159 635v20h252v-20h-252z" />
    <glyph glyph-name="Ebreve" unicode="&#x114;" horiz-adv-x="554" 
d="M100 0v724h383v-22h-360v-315h321v-22h-321v-343h368v-22h-391zM291 807q-59 0 -91 39.5t-34 96.5h19q4 -51 29.5 -84t76.5 -33t76.5 33t29.5 84h19q-2 -57 -34 -96.5t-91 -39.5z" />
    <glyph glyph-name="ebreve" unicode="&#x115;" horiz-adv-x="559" 
d="M503 243h-424q1 -100 65.5 -166t167.5 -66q91 0 162 52v-27q-72 -47 -163 -47q-111 0 -183 72t-72 185q0 111 68.5 184t168.5 73q90 0 151 -60.5t61 -163.5q0 -16 -2 -36zM292 481q-81 0 -143.5 -58.5t-68.5 -157.5h402v11q0 57 -19 99.5t-49 64t-60.5 31.5t-61.5 10z
M285 575q-59 0 -91 39.5t-34 96.5h19q4 -51 29.5 -84t76.5 -33t76.5 33t29.5 84h19q-2 -57 -34 -96.5t-91 -39.5z" />
    <glyph glyph-name="Edotaccent" unicode="&#x116;" horiz-adv-x="554" 
d="M100 0v724h383v-22h-360v-315h321v-22h-321v-343h368v-22h-391zM291 851q-11 0 -18.5 7.5t-7.5 18.5t7.5 18.5t18.5 7.5t18.5 -7.5t7.5 -18.5t-7.5 -18.5t-18.5 -7.5z" />
    <glyph glyph-name="edotaccent" unicode="&#x117;" horiz-adv-x="559" 
d="M503 243h-424q1 -100 65.5 -166t167.5 -66q91 0 162 52v-27q-72 -47 -163 -47q-111 0 -183 72t-72 185q0 111 68.5 184t168.5 73q90 0 151 -60.5t61 -163.5q0 -16 -2 -36zM292 481q-81 0 -143.5 -58.5t-68.5 -157.5h402v11q0 57 -19 99.5t-49 64t-60.5 31.5t-61.5 10z
M285 619q-11 0 -18.5 7.5t-7.5 18.5t7.5 18.5t18.5 7.5t18.5 -7.5t7.5 -18.5t-7.5 -18.5t-18.5 -7.5z" />
    <glyph glyph-name="Eogonek" unicode="&#x118;" horiz-adv-x="554" 
d="M100 0v724h383v-22h-360v-315h321v-22h-321v-343h368v-22q-98 -65 -98 -146q0 -32 17 -47.5t43 -15.5q19 0 38 7v-23q-16 -6 -36 -6q-40 0 -62.5 23.5t-22.5 60.5q0 39 24.5 78t63.5 68v1h-358z" />
    <glyph glyph-name="eogonek" unicode="&#x119;" horiz-adv-x="559" 
d="M312 11q91 0 162 52v-27q-131 -104 -131 -183q0 -32 17 -47t44 -15q20 0 38 5v-21q-16 -6 -37 -6q-40 0 -62.5 23t-22.5 60q0 75 86 151l-1 1q-45 -15 -94 -15q-111 0 -183 72t-72 185q0 111 68.5 184t168.5 73q90 0 151 -60.5t61 -163.5q0 -16 -2 -36h-424
q1 -100 65.5 -166t167.5 -66zM292 481q-81 0 -143.5 -58.5t-68.5 -157.5h402v11q0 57 -19 99.5t-49 64t-60.5 31.5t-61.5 10z" />
    <glyph glyph-name="Ecaron" unicode="&#x11a;" horiz-adv-x="554" 
d="M100 0v724h383v-22h-360v-315h321v-22h-321v-343h368v-22h-391zM423 959l-120 -164h-24l-120 164h22l110 -148l110 148h22z" />
    <glyph glyph-name="ecaron" unicode="&#x11b;" horiz-adv-x="559" 
d="M503 243h-424q1 -100 65.5 -166t167.5 -66q91 0 162 52v-27q-72 -47 -163 -47q-111 0 -183 72t-72 185q0 111 68.5 184t168.5 73q90 0 151 -60.5t61 -163.5q0 -16 -2 -36zM292 481q-81 0 -143.5 -58.5t-68.5 -157.5h402v11q0 57 -19 99.5t-49 64t-60.5 31.5t-61.5 10z
M417 727l-120 -164h-24l-120 164h22l110 -148l110 148h22z" />
    <glyph glyph-name="Gcircumflex" unicode="&#x11c;" horiz-adv-x="736" 
d="M55 363q0 158 104 265t270 107q108 0 204 -52v-25q-93 55 -205 55q-155 0 -252.5 -100.5t-97.5 -249.5t97 -250t251 -101q113 0 202 52v244h-207v22h230v-279q-98 -62 -226 -62q-162 0 -266 108t-104 266zM274 795l120 164h24l120 -164h-22l-110 148l-110 -148h-22z" />
    <glyph glyph-name="gcircumflex" unicode="&#x11d;" horiz-adv-x="581" 
d="M113 -192v26q67 -43 148 -43q95 0 148 55t53 152v76h-1q-68 -75 -176 -75q-101 0 -165.5 68.5t-64.5 175.5q0 108 65 184t177 76q86 0 166 -49l22 4v-461q0 -103 -58.5 -165.5t-164.5 -62.5q-78 0 -149 39zM78 245q0 -99 58 -161.5t151 -62.5q106 0 175 83v325
q-75 52 -165 52q-99 0 -159 -67.5t-60 -168.5zM158 563l120 164h24l120 -164h-22l-110 148l-110 -148h-22z" />
    <glyph glyph-name="Gbreve" unicode="&#x11e;" horiz-adv-x="736" 
d="M55 363q0 158 104 265t270 107q108 0 204 -52v-25q-93 55 -205 55q-155 0 -252.5 -100.5t-97.5 -249.5t97 -250t251 -101q113 0 202 52v244h-207v22h230v-279q-98 -62 -226 -62q-162 0 -266 108t-104 266zM406 807q-59 0 -91 39.5t-34 96.5h19q4 -51 29.5 -84t76.5 -33
t76.5 33t29.5 84h19q-2 -57 -34 -96.5t-91 -39.5z" />
    <glyph glyph-name="gbreve" unicode="&#x11f;" horiz-adv-x="581" 
d="M113 -192v26q67 -43 148 -43q95 0 148 55t53 152v76h-1q-68 -75 -176 -75q-101 0 -165.5 68.5t-64.5 175.5q0 108 65 184t177 76q86 0 166 -49l22 4v-461q0 -103 -58.5 -165.5t-164.5 -62.5q-78 0 -149 39zM78 245q0 -99 58 -161.5t151 -62.5q106 0 175 83v325
q-75 52 -165 52q-99 0 -159 -67.5t-60 -168.5zM290 575q-59 0 -91 39.5t-34 96.5h19q4 -51 29.5 -84t76.5 -33t76.5 33t29.5 84h19q-2 -57 -34 -96.5t-91 -39.5z" />
    <glyph glyph-name="Gdotaccent" unicode="&#x120;" horiz-adv-x="736" 
d="M55 363q0 158 104 265t270 107q108 0 204 -52v-25q-93 55 -205 55q-155 0 -252.5 -100.5t-97.5 -249.5t97 -250t251 -101q113 0 202 52v244h-207v22h230v-279q-98 -62 -226 -62q-162 0 -266 108t-104 266zM406 851q-10 0 -18 7.5t-8 18.5t8 18.5t18 7.5t18 -7.5t8 -18.5
t-8 -18.5t-18 -7.5z" />
    <glyph glyph-name="gdotaccent" unicode="&#x121;" horiz-adv-x="581" 
d="M113 -192v26q67 -43 148 -43q95 0 148 55t53 152v76h-1q-68 -75 -176 -75q-101 0 -165.5 68.5t-64.5 175.5q0 108 65 184t177 76q86 0 166 -49l22 4v-461q0 -103 -58.5 -165.5t-164.5 -62.5q-78 0 -149 39zM78 245q0 -99 58 -161.5t151 -62.5q106 0 175 83v325
q-75 52 -165 52q-99 0 -159 -67.5t-60 -168.5zM290 619q-10 0 -18 7.5t-8 18.5t8 18.5t18 7.5t18 -7.5t8 -18.5t-8 -18.5t-18 -7.5z" />
    <glyph glyph-name="Gcommaaccent" unicode="&#x122;" horiz-adv-x="736" 
d="M55 363q0 158 104 265t270 107q108 0 204 -52v-25q-93 55 -205 55q-155 0 -252.5 -100.5t-97.5 -249.5t97 -250t251 -101q113 0 202 52v244h-207v22h230v-279q-98 -62 -226 -62q-162 0 -266 108t-104 266zM423 -54h24l-67 -218h-19z" />
    <glyph glyph-name="gcommaaccent" unicode="&#x123;" horiz-adv-x="581" 
d="M113 -192v26q67 -43 148 -43q95 0 148 55t53 152v76h-1q-68 -75 -176 -75q-101 0 -165.5 68.5t-64.5 175.5q0 108 65 184t177 76q86 0 166 -49l22 4v-461q0 -103 -58.5 -165.5t-164.5 -62.5q-78 0 -149 39zM78 245q0 -99 58 -161.5t151 -62.5q106 0 175 83v325
q-75 52 -165 52q-99 0 -159 -67.5t-60 -168.5zM248 556l67 218h19l-62 -218h-24z" />
    <glyph glyph-name="Hcircumflex" unicode="&#x124;" horiz-adv-x="734" 
d="M100 0v724h23v-337h488v337h23v-724h-23v365h-488v-365h-23zM235 795l120 164h24l120 -164h-22l-110 148l-110 -148h-22z" />
    <glyph glyph-name="hcircumflex" unicode="&#x125;" horiz-adv-x="591" 
d="M97 0v764h23v-350l1 -1q103 90 208 90q77 0 122 -45q46 -46 46 -149v-309h-23v305q0 96 -40 137q-37 39 -106 39q-103 0 -208 -95v-386h-23zM-24 826l120 164h24l120 -164h-22l-110 148l-110 -148h-22z" />
    <glyph glyph-name="Hbar" unicode="&#x126;" horiz-adv-x="744" 
d="M13 545v21h92v158h23v-158h488v158h23v-158h92v-21h-92v-545h-23v365h-488v-365h-23v545h-92zM128 387h488v158h-488v-158z" />
    <glyph glyph-name="hbar" unicode="&#x127;" horiz-adv-x="591" 
d="M21 611v21h76v132h23v-132h208v-21h-208v-197l1 -1q103 90 208 90q77 0 122 -45q46 -46 46 -149v-309h-23v305q0 96 -40 137q-37 39 -106 39q-103 0 -208 -95v-386h-23v611h-76z" />
    <glyph glyph-name="Itilde" unicode="&#x128;" horiz-adv-x="223" 
d="M100 0v724h23v-724h-23zM105 873q-42 27 -66 27q-44 0 -74 -54h-2v27q28 47 77 47q29 0 77 -31q42 -27 66 -27q44 0 74 54h2v-27q-28 -47 -77 -47q-29 0 -77 31z" />
    <glyph glyph-name="itilde" unicode="&#x129;" horiz-adv-x="217" 
d="M97 0v492h23v-492h-23zM102 641q-42 27 -66 27q-44 0 -74 -54h-2v27q28 47 77 47q29 0 77 -31q42 -27 66 -27q44 0 74 54h2v-27q-28 -47 -77 -47q-29 0 -77 31z" />
    <glyph glyph-name="Imacron" unicode="&#x12a;" horiz-adv-x="223" 
d="M100 0v724h23v-724h-23zM-15 867v20h252v-20h-252z" />
    <glyph glyph-name="imacron" unicode="&#x12b;" horiz-adv-x="217" 
d="M97 0v492h23v-492h-23zM-18 635v20h252v-20h-252z" />
    <glyph glyph-name="Ibreve" unicode="&#x12c;" horiz-adv-x="223" 
d="M100 0v724h23v-724h-23zM111 807q-59 0 -91 39.5t-34 96.5h19q4 -51 29.5 -84t76.5 -33t76.5 33t29.5 84h19q-2 -57 -34 -96.5t-91 -39.5z" />
    <glyph glyph-name="ibreve" unicode="&#x12d;" horiz-adv-x="217" 
d="M97 0v492h23v-492h-23zM108 575q-59 0 -91 39.5t-34 96.5h19q4 -51 29.5 -84t76.5 -33t76.5 33t29.5 84h19q-2 -57 -34 -96.5t-91 -39.5z" />
    <glyph glyph-name="Iogonek" unicode="&#x12e;" horiz-adv-x="223" 
d="M36 -143q0 63 64 144v723h23v-724q-64 -86 -64 -141q0 -33 16.5 -50.5t44.5 -17.5q18 0 35 5v-22q-15 -5 -33 -5q-40 0 -63 24.5t-23 63.5z" />
    <glyph glyph-name="iogonek" unicode="&#x12f;" horiz-adv-x="217" 
d="M33 -143q0 63 64 144v491h23v-492q-64 -86 -64 -141q0 -33 16.5 -50.5t44.5 -17.5q18 0 35 5v-22q-15 -5 -33 -5q-40 0 -63 24.5t-23 63.5zM82 666q0 10 8 18t18 8t18 -8t8 -18t-8 -18t-18 -8t-18 8t-8 18z" />
    <glyph glyph-name="Idotaccent" unicode="&#x130;" horiz-adv-x="223" 
d="M100 0v724h23v-724h-23zM111 851q-11 0 -18.5 7.5t-7.5 18.5t7.5 18.5t18.5 7.5t18.5 -7.5t7.5 -18.5t-7.5 -18.5t-18.5 -7.5z" />
    <glyph glyph-name="dotlessi" unicode="&#x131;" horiz-adv-x="217" 
d="M97 0v492h23v-492h-23z" />
    <glyph glyph-name="IJ" unicode="&#x132;" horiz-adv-x="617" 
d="M100 0v724h23v-724h-23zM272 12v24q53 -25 103 -25q71 0 95 44t24 130v539h23v-540q0 -111 -36 -153q-35 -42 -106 -42q-47 0 -103 23z" />
    <glyph glyph-name="ij" unicode="&#x133;" horiz-adv-x="437" 
d="M82 666q0 10 8 18t18 8t18 -8t8 -18t-8 -18t-18 -8t-18 8t-8 18zM97 0v492h23v-492h-23zM301 666q0 10 7.5 18t18.5 8t18.5 -8t7.5 -18t-7.5 -18t-18.5 -8t-18.5 8t-7.5 18zM316 -89v581h23v-580q0 -75 -28 -108q-30 -35 -88 -35q-22 0 -47 5v23q26 -6 48 -6
q51 0 71.5 30t20.5 90z" />
    <glyph glyph-name="Jcircumflex" unicode="&#x134;" horiz-adv-x="394" 
d="M49 12v24q53 -25 103 -25q71 0 95 44t24 130v539h23v-540q0 -111 -36 -153q-35 -42 -106 -42q-47 0 -103 23zM150 795l120 164h24l120 -164h-22l-110 148l-110 -148h-22z" />
    <glyph glyph-name="jcircumflex" unicode="&#x135;" horiz-adv-x="220" 
d="M99 -89v581h23v-580q0 -75 -28 -108q-30 -35 -88 -35q-22 0 -47 5v23q26 -6 48 -6q51 0 71.5 30t20.5 90zM-22 563l120 164h24l120 -164h-22l-110 148l-110 -148h-22z" />
    <glyph glyph-name="Kcommaaccent" unicode="&#x136;" horiz-adv-x="600" 
d="M100 0v724h23v-334h1l389 334h32l-392 -336l423 -388h-34l-418 384h-1v-384h-23zM317 -54h24l-67 -218h-19z" />
    <glyph glyph-name="kcommaaccent" unicode="&#x137;" horiz-adv-x="480" 
d="M97 0v764h23v-491h1l280 219h32l-282 -220l311 -272h-34l-307 269h-1v-269h-23zM257 -54h24l-67 -218h-19z" />
    <glyph glyph-name="kgreenlandic" unicode="&#x138;" horiz-adv-x="480" 
d="M97 0v492h23v-219h1l280 219h32l-282 -220l311 -272h-34l-307 269h-1v-269h-23z" />
    <glyph glyph-name="Lacute" unicode="&#x139;" horiz-adv-x="550" 
d="M100 0v724h23v-702h378v-22h-401zM213 959l-100 -164h-21l96 164h25z" />
    <glyph glyph-name="lacute" unicode="&#x13a;" horiz-adv-x="217" 
d="M97 0v764h23v-764h-23zM188 990l-100 -164h-21l96 164h25z" />
    <glyph glyph-name="Lcommaaccent" unicode="&#x13b;" horiz-adv-x="550" 
d="M100 0v724h23v-702h378v-22h-401zM312 -54h24l-67 -218h-19z" />
    <glyph glyph-name="lcommaaccent" unicode="&#x13c;" horiz-adv-x="217" 
d="M97 0v764h23v-764h-23zM125 -54h24l-67 -218h-19z" />
    <glyph glyph-name="Lcaron" unicode="&#x13d;" horiz-adv-x="550" 
d="M100 0v724h23v-702h378v-22h-401zM251 527l58 253h27l-67 -253h-18z" />
    <glyph glyph-name="lcaron" unicode="&#x13e;" horiz-adv-x="285" 
d="M97 0v764h23v-764h-23zM260 764h24l-67 -218h-19z" />
    <glyph glyph-name="Ldot" unicode="&#x13f;" horiz-adv-x="550" 
d="M100 0v724h23v-702h378v-22h-401zM347 365q0 13 9.5 22.5t22.5 9.5t22.5 -9.5t9.5 -22.5t-9.5 -22.5t-22.5 -9.5t-22.5 9.5t-9.5 22.5z" />
    <glyph glyph-name="ldot" unicode="&#x140;" horiz-adv-x="281" 
d="M97 0v764h23v-764h-23zM250 307q-10 0 -18 7.5t-8 18.5t8 18.5t18 7.5t18 -7.5t8 -18.5t-8 -18.5t-18 -7.5z" />
    <glyph glyph-name="Lslash" unicode="&#x141;" horiz-adv-x="556" 
d="M106 0v313l-103 -70v26l103 70v385h23v-369l134 91v-26l-134 -91v-307h378v-22h-401z" />
    <glyph glyph-name="lslash" unicode="&#x142;" horiz-adv-x="224" 
d="M101 0v335l-90 -61v25l90 61v404h22v-389l90 61v-25l-90 -61v-350h-22z" />
    <glyph glyph-name="Nacute" unicode="&#x143;" horiz-adv-x="758" 
d="M100 0v724h23l511 -684h1v684h23v-724h-23l-511 684h-1v-684h-23zM458 959l-100 -164h-21l96 164h25z" />
    <glyph glyph-name="nacute" unicode="&#x144;" horiz-adv-x="592" 
d="M97 0v492h23v-78l1 -1q103 90 208 90q77 0 122 -45q46 -46 46 -149v-309h-23v305q0 96 -40 137q-37 39 -106 39q-103 0 -208 -95v-386h-23zM375 727l-100 -164h-21l96 164h25z" />
    <glyph glyph-name="Ncommaaccent" unicode="&#x145;" horiz-adv-x="758" 
d="M100 0v724h23l511 -684h1v684h23v-724h-23l-511 684h-1v-684h-23zM396 -54h24l-67 -218h-19z" />
    <glyph glyph-name="ncommaaccent" unicode="&#x146;" horiz-adv-x="592" 
d="M97 0v492h23v-78l1 -1q103 90 208 90q77 0 122 -45q46 -46 46 -149v-309h-23v305q0 96 -40 137q-37 39 -106 39q-103 0 -208 -95v-386h-23zM313 -54h24l-67 -218h-19z" />
    <glyph glyph-name="Ncaron" unicode="&#x147;" horiz-adv-x="758" 
d="M100 0v724h23l511 -684h1v684h23v-724h-23l-511 684h-1v-684h-23zM511 959l-120 -164h-24l-120 164h22l110 -148l110 148h22z" />
    <glyph glyph-name="ncaron" unicode="&#x148;" horiz-adv-x="592" 
d="M97 0v492h23v-78l1 -1q103 90 208 90q77 0 122 -45q46 -46 46 -149v-309h-23v305q0 96 -40 137q-37 39 -106 39q-103 0 -208 -95v-386h-23zM428 727l-120 -164h-24l-120 164h22l110 -148l110 148h22z" />
    <glyph glyph-name="napostrophe" unicode="&#x149;" horiz-adv-x="592" 
d="M97 0v492h23v-78l1 -1q103 90 208 90q77 0 122 -45q46 -46 46 -149v-309h-23v305q0 96 -40 137q-37 39 -106 39q-103 0 -208 -95v-386h-23zM140 772h24l-67 -218h-19z" />
    <glyph glyph-name="Eng" unicode="&#x14a;" horiz-adv-x="758" 
d="M413 -208v24q53 -25 103 -25q71 0 95 44t24 130v35l-511 684h-1v-684h-23v724h23l511 -684h1v684h23v-760q0 -111 -36 -153q-35 -42 -106 -42q-47 0 -103 23z" />
    <glyph glyph-name="eng" unicode="&#x14b;" horiz-adv-x="592" 
d="M97 0v492h23v-78l1 -1q103 90 208 90q77 0 122 -45q46 -46 46 -149v-397q0 -75 -28 -108q-30 -35 -88 -35q-22 0 -47 5v23q26 -6 48 -6q51 0 71.5 30t20.5 90v394q0 96 -40 137q-37 39 -106 39q-103 0 -208 -95v-386h-23z" />
    <glyph glyph-name="Omacron" unicode="&#x14c;" horiz-adv-x="832" 
d="M55 362q0 157 103.5 265t257.5 108t257.5 -108t103.5 -265t-103.5 -265t-257.5 -108t-257.5 108t-103.5 265zM78 362q0 -148 96.5 -249.5t241.5 -101.5t241.5 101.5t96.5 249.5t-96.5 249.5t-241.5 101.5t-241.5 -101.5t-96.5 -249.5zM290 867v20h252v-20h-252z" />
    <glyph glyph-name="omacron" unicode="&#x14d;" horiz-adv-x="610" 
d="M56 246q0 109 71 183t178 74t178 -74t71 -183t-71 -183t-178 -74t-178 74t-71 183zM79 246q0 -101 64.5 -168t161.5 -67t161.5 67t64.5 168t-64.5 168t-161.5 67t-161.5 -67t-64.5 -168zM179 635v20h252v-20h-252z" />
    <glyph glyph-name="Obreve" unicode="&#x14e;" horiz-adv-x="832" 
d="M55 362q0 157 103.5 265t257.5 108t257.5 -108t103.5 -265t-103.5 -265t-257.5 -108t-257.5 108t-103.5 265zM78 362q0 -148 96.5 -249.5t241.5 -101.5t241.5 101.5t96.5 249.5t-96.5 249.5t-241.5 101.5t-241.5 -101.5t-96.5 -249.5zM416 807q-59 0 -91 39.5t-34 96.5
h19q4 -51 29.5 -84t76.5 -33t76.5 33t29.5 84h19q-2 -57 -34 -96.5t-91 -39.5z" />
    <glyph glyph-name="obreve" unicode="&#x14f;" horiz-adv-x="610" 
d="M56 246q0 109 71 183t178 74t178 -74t71 -183t-71 -183t-178 -74t-178 74t-71 183zM79 246q0 -101 64.5 -168t161.5 -67t161.5 67t64.5 168t-64.5 168t-161.5 67t-161.5 -67t-64.5 -168zM305 575q-59 0 -91 39.5t-34 96.5h19q4 -51 29.5 -84t76.5 -33t76.5 33t29.5 84h19
q-2 -57 -34 -96.5t-91 -39.5z" />
    <glyph glyph-name="Ohungarumlaut" unicode="&#x150;" horiz-adv-x="832" 
d="M55 362q0 157 103.5 265t257.5 108t257.5 -108t103.5 -265t-103.5 -265t-257.5 -108t-257.5 108t-103.5 265zM78 362q0 -148 96.5 -249.5t241.5 -101.5t241.5 101.5t96.5 249.5t-96.5 249.5t-241.5 101.5t-241.5 -101.5t-96.5 -249.5zM441 795l96 164h25l-101 -164h-20z
M326 795l96 164h25l-101 -164h-20z" />
    <glyph glyph-name="ohungarumlaut" unicode="&#x151;" horiz-adv-x="610" 
d="M56 246q0 109 71 183t178 74t178 -74t71 -183t-71 -183t-178 -74t-178 74t-71 183zM79 246q0 -101 64.5 -168t161.5 -67t161.5 67t64.5 168t-64.5 168t-161.5 67t-161.5 -67t-64.5 -168zM330 563l96 164h25l-101 -164h-20zM215 563l96 164h25l-101 -164h-20z" />
    <glyph glyph-name="OE" unicode="&#x152;" horiz-adv-x="951" 
d="M473 0q-193 0 -296 90q-56 49 -89 119.5t-33 150.5q0 74 28.5 141.5t74.5 114.5q106 108 315 108h407v-22h-351v-315h312v-22h-312v-343h359v-22h-415zM506 702h-33q-198 0 -298 -100q-97 -97 -97 -240q0 -75 30 -142t84 -114q96 -84 281 -84h33v680z" />
    <glyph glyph-name="oe" unicode="&#x153;" horiz-adv-x="1026" 
d="M762 503q89 0 149.5 -60.5t60.5 -163.5q0 -16 -2 -36h-421q1 -103 66.5 -167.5t168.5 -64.5q88 0 157 52v-27q-71 -47 -161 -47q-89 0 -154 48t-88 127h-2q-21 -78 -84 -126.5t-149 -48.5q-107 0 -177 74t-70 183t70 183t177 74q85 0 148.5 -49t84.5 -126h2
q22 78 83 126.5t141 48.5zM79 246q0 -101 64 -168t160 -67t159.5 67t63.5 168t-63.5 168t-159.5 67t-160 -67t-64 -168zM549 265h400v11q0 57 -18.5 99.5t-48.5 64t-60 31.5t-60 10q-80 0 -143.5 -58.5t-69.5 -157.5z" />
    <glyph glyph-name="Racute" unicode="&#x154;" horiz-adv-x="632" 
d="M100 0v724h192q134 0 197 -51q67 -54 67 -141q0 -82 -58 -134q-53 -48 -155 -56l253 -342h-28l-251 340h-194v-340h-23zM123 362h185q118 0 175 52q50 45 50 118q0 79 -60 126q-57 44 -182 44h-168v-340zM375 959l-100 -164h-21l96 164h25z" />
    <glyph glyph-name="racute" unicode="&#x155;" horiz-adv-x="334" 
d="M97 0v492h23v-89l2 -1q76 97 174 97q13 0 25 -2v-22q-12 2 -25 2q-98 0 -176 -107v-370h-23zM260 727l-100 -164h-21l96 164h25z" />
    <glyph glyph-name="Rcommaaccent" unicode="&#x156;" horiz-adv-x="632" 
d="M100 0v724h192q134 0 197 -51q67 -54 67 -141q0 -82 -58 -134q-53 -48 -155 -56l253 -342h-28l-251 340h-194v-340h-23zM123 362h185q118 0 175 52q50 45 50 118q0 79 -60 126q-57 44 -182 44h-168v-340zM313 -54h24l-67 -218h-19z" />
    <glyph glyph-name="rcommaaccent" unicode="&#x157;" horiz-adv-x="334" 
d="M97 0v492h23v-89l2 -1q76 97 174 97q13 0 25 -2v-22q-12 2 -25 2q-98 0 -176 -107v-370h-23zM152 -54h24l-67 -218h-19z" />
    <glyph glyph-name="Rcaron" unicode="&#x158;" horiz-adv-x="632" 
d="M100 0v724h192q134 0 197 -51q67 -54 67 -141q0 -82 -58 -134q-53 -48 -155 -56l253 -342h-28l-251 340h-194v-340h-23zM123 362h185q118 0 175 52q50 45 50 118q0 79 -60 126q-57 44 -182 44h-168v-340zM428 959l-120 -164h-24l-120 164h22l110 -148l110 148h22z" />
    <glyph glyph-name="rcaron" unicode="&#x159;" horiz-adv-x="334" 
d="M97 0v492h23v-89l2 -1q76 97 174 97q13 0 25 -2v-22q-12 2 -25 2q-98 0 -176 -107v-370h-23zM313 727l-120 -164h-24l-120 164h22l110 -148l110 148h22z" />
    <glyph glyph-name="Sacute" unicode="&#x15a;" horiz-adv-x="545" 
d="M74 54v28q85 -71 207 -71q86 0 139.5 43.5t53.5 123.5q0 35 -12.5 63.5t-29 46t-46 32t-51 22t-56.5 16.5q-39 11 -61.5 18t-55.5 23t-50.5 34t-31 48.5t-13.5 69.5q0 87 57 135.5t149 48.5q114 0 196 -59v-27q-86 64 -196 64q-83 0 -133 -42t-50 -118q0 -29 7 -52.5
t23 -40.5t30.5 -29t41 -22t43 -15.5t46.5 -13.5q32 -9 51.5 -15t48.5 -17.5t46.5 -25.5t35 -34t26 -47t8.5 -61q0 -90 -59 -140.5t-155 -50.5q-56 0 -113 17.5t-96 47.5zM355 959l-100 -164h-21l96 164h25z" />
    <glyph glyph-name="sacute" unicode="&#x15b;" horiz-adv-x="480" 
d="M55 36v29q79 -54 186 -54q76 0 119.5 29t43.5 84q0 26 -11 45.5t-26 31t-41 20.5t-44.5 12.5t-48.5 8.5q-24 3 -38 6t-39 9t-40.5 15.5t-32 22.5t-24.5 33t-8 45q0 61 48.5 95.5t132.5 34.5q98 0 175 -45v-28q-74 51 -177 51q-72 0 -114 -28t-42 -80q0 -24 10.5 -42.5
t24.5 -29t40 -18.5t43 -11.5t47 -7.5q25 -4 40 -7t40.5 -9.5t41.5 -16t33 -24t25 -35.5t8 -48q0 -63 -50 -99t-138 -36q-107 0 -184 47zM311 727l-100 -164h-21l96 164h25z" />
    <glyph glyph-name="Scircumflex" unicode="&#x15c;" horiz-adv-x="545" 
d="M74 54v28q85 -71 207 -71q86 0 139.5 43.5t53.5 123.5q0 35 -12.5 63.5t-29 46t-46 32t-51 22t-56.5 16.5q-39 11 -61.5 18t-55.5 23t-50.5 34t-31 48.5t-13.5 69.5q0 87 57 135.5t149 48.5q114 0 196 -59v-27q-86 64 -196 64q-83 0 -133 -42t-50 -118q0 -29 7 -52.5
t23 -40.5t30.5 -29t41 -22t43 -15.5t46.5 -13.5q32 -9 51.5 -15t48.5 -17.5t46.5 -25.5t35 -34t26 -47t8.5 -61q0 -90 -59 -140.5t-155 -50.5q-56 0 -113 17.5t-96 47.5zM144 795l120 164h24l120 -164h-22l-110 148l-110 -148h-22z" />
    <glyph glyph-name="scircumflex" unicode="&#x15d;" horiz-adv-x="480" 
d="M55 36v29q79 -54 186 -54q76 0 119.5 29t43.5 84q0 26 -11 45.5t-26 31t-41 20.5t-44.5 12.5t-48.5 8.5q-24 3 -38 6t-39 9t-40.5 15.5t-32 22.5t-24.5 33t-8 45q0 61 48.5 95.5t132.5 34.5q98 0 175 -45v-28q-74 51 -177 51q-72 0 -114 -28t-42 -80q0 -24 10.5 -42.5
t24.5 -29t40 -18.5t43 -11.5t47 -7.5q25 -4 40 -7t40.5 -9.5t41.5 -16t33 -24t25 -35.5t8 -48q0 -63 -50 -99t-138 -36q-107 0 -184 47zM100 563l120 164h24l120 -164h-22l-110 148l-110 -148h-22z" />
    <glyph glyph-name="Scedilla" unicode="&#x15e;" horiz-adv-x="545" 
d="M74 54v28q85 -71 207 -71q86 0 139.5 43.5t53.5 123.5q0 35 -12.5 63.5t-29 46t-46 32t-51 22t-56.5 16.5q-39 11 -61.5 18t-55.5 23t-50.5 34t-31 48.5t-13.5 69.5q0 87 57 135.5t149 48.5q114 0 196 -59v-27q-86 64 -196 64q-83 0 -133 -42t-50 -118q0 -29 7 -52.5
t23 -40.5t30.5 -29t41 -22t43 -15.5t46.5 -13.5q32 -9 51.5 -15t48.5 -17.5t46.5 -25.5t35 -34t26 -47t8.5 -61q0 -88 -57 -138.5t-151 -52.5l-13 -47q95 -17 95 -84q0 -35 -24 -57t-64 -22q-37 0 -71 17l6 20q35 -16 66 -16q28 0 46 15t18 41q0 61 -98 68l19 65
q-122 7 -195 65z" />
    <glyph glyph-name="scedilla" unicode="&#x15f;" horiz-adv-x="480" 
d="M55 36v29q79 -54 186 -54q76 0 119.5 29t43.5 84q0 26 -11 45.5t-26 30.5t-41 20t-44.5 12.5t-48.5 8.5q-28 4 -46 7.5t-47 13.5t-46 22.5t-30 35.5t-13 53q0 61 48.5 95.5t132.5 34.5q98 0 175 -45v-28q-74 51 -177 51q-72 0 -114 -28t-42 -80q0 -24 10.5 -42.5t25 -29
t39.5 -19t43 -12t47 -7.5q31 -5 48.5 -8t48 -13.5t47.5 -24t30.5 -37.5t13.5 -56q0 -63 -50 -99t-138 -36l-13 -47q95 -17 95 -84q0 -35 -24 -57t-64 -22q-37 0 -71 17l6 20q35 -16 66 -16q28 0 46 15t18 41q0 61 -98 68l19 65q-97 6 -164 47z" />
    <glyph glyph-name="Scaron" unicode="&#x160;" horiz-adv-x="545" 
d="M74 54v28q85 -71 207 -71q86 0 139.5 43.5t53.5 123.5q0 35 -12.5 63.5t-29 46t-46 32t-51 22t-56.5 16.5q-39 11 -61.5 18t-55.5 23t-50.5 34t-31 48.5t-13.5 69.5q0 87 57 135.5t149 48.5q114 0 196 -59v-27q-86 64 -196 64q-83 0 -133 -42t-50 -118q0 -29 7 -52.5
t23 -40.5t30.5 -29t41 -22t43 -15.5t46.5 -13.5q32 -9 51.5 -15t48.5 -17.5t46.5 -25.5t35 -34t26 -47t8.5 -61q0 -90 -59 -140.5t-155 -50.5q-56 0 -113 17.5t-96 47.5zM408 959l-120 -164h-24l-120 164h22l110 -148l110 148h22z" />
    <glyph glyph-name="scaron" unicode="&#x161;" horiz-adv-x="480" 
d="M55 36v29q79 -54 186 -54q76 0 119.5 29t43.5 84q0 26 -11 45.5t-26 31t-41 20.5t-44.5 12.5t-48.5 8.5q-24 3 -38 6t-39 9t-40.5 15.5t-32 22.5t-24.5 33t-8 45q0 61 48.5 95.5t132.5 34.5q98 0 175 -45v-28q-74 51 -177 51q-72 0 -114 -28t-42 -80q0 -24 10.5 -42.5
t24.5 -29t40 -18.5t43 -11.5t47 -7.5q25 -4 40 -7t40.5 -9.5t41.5 -16t33 -24t25 -35.5t8 -48q0 -63 -50 -99t-138 -36q-107 0 -184 47zM364 727l-120 -164h-24l-120 164h22l110 -148l110 148h22z" />
    <glyph glyph-name="Tcommaaccent" unicode="&#x162;" horiz-adv-x="615" 
d="M296 0v702h-256v22h535v-22h-256v-702h-2l-16 -58q95 -17 95 -84q0 -35 -24 -57t-64 -22q-37 0 -71 17l6 20q35 -16 66 -16q28 0 46 15t18 41q0 61 -98 68l22 76h-1z" />
    <glyph glyph-name="tcommaaccent" unicode="&#x163;" horiz-adv-x="354" 
d="M161 27q-33 37 -33 137v307h-107v21h107v142l23 4v-146h173v-21h-173v-304q0 -78 22 -117t87 -39q36 0 64 15v-24q-33 -13 -65 -13q-16 0 -25 2l-14 -49q95 -17 95 -84q0 -35 -24 -57t-64 -22q-37 0 -71 17l6 20q35 -16 66 -16q28 0 46 15t18 41q0 61 -98 68l21 71
q-33 8 -54 32z" />
    <glyph glyph-name="Tcaron" unicode="&#x164;" horiz-adv-x="615" 
d="M296 0v702h-256v22h535v-22h-256v-702h-23zM439 959l-120 -164h-24l-120 164h22l110 -148l110 148h22z" />
    <glyph glyph-name="tcaron" unicode="&#x165;" horiz-adv-x="354" 
d="M161 27q-33 37 -33 137v307h-107v21h107v142l23 4v-146h173v-21h-173v-304q0 -78 22 -117t87 -39q36 0 64 15v-24q-33 -13 -65 -13q-66 0 -98 38zM347 772h24l-67 -218h-19z" />
    <glyph glyph-name="Tbar" unicode="&#x166;" horiz-adv-x="615" 
d="M148 363v21h148v318h-256v22h535v-22h-256v-318h148v-21h-148v-363h-23v363h-148z" />
    <glyph glyph-name="tbar" unicode="&#x167;" horiz-adv-x="369" 
d="M26 268v21h107v182h-107v21h107v142l23 4v-146h173v-21h-173v-182h173v-21h-173v-101q0 -78 22 -117t87 -39q35 0 64 15v-24q-33 -13 -65 -13q-66 0 -98 38q-33 37 -33 137v104h-107z" />
    <glyph glyph-name="Utilde" unicode="&#x168;" horiz-adv-x="716" 
d="M170 55q-44 44 -61.5 112t-17.5 180v377h23v-377q0 -107 16.5 -172.5t57.5 -105.5q60 -58 170 -58q132 0 193 84q29 40 40.5 98.5t11.5 153.5v377h22v-377q0 -97 -12 -157.5t-42 -104.5q-66 -97 -213 -97q-121 0 -188 67zM352 873q-42 27 -66 27q-44 0 -74 -54h-2v27
q28 47 77 47q29 0 77 -31q42 -27 66 -27q44 0 74 54h2v-27q-28 -47 -77 -47q-29 0 -77 31z" />
    <glyph glyph-name="utilde" unicode="&#x169;" horiz-adv-x="590" 
d="M138 37q-44 48 -44 162v293h23v-288q0 -111 39 -153q37 -40 109 -40q103 0 206 98v383h23v-492h-23v81h-1q-98 -92 -209 -92q-79 0 -123 48zM289 641q-42 27 -66 27q-44 0 -74 -54h-2v27q28 47 77 47q29 0 77 -31q42 -27 66 -27q44 0 74 54h2v-27q-28 -47 -77 -47
q-29 0 -77 31z" />
    <glyph glyph-name="Umacron" unicode="&#x16a;" horiz-adv-x="716" 
d="M170 55q-44 44 -61.5 112t-17.5 180v377h23v-377q0 -107 16.5 -172.5t57.5 -105.5q60 -58 170 -58q132 0 193 84q29 40 40.5 98.5t11.5 153.5v377h22v-377q0 -97 -12 -157.5t-42 -104.5q-66 -97 -213 -97q-121 0 -188 67zM232 867v20h252v-20h-252z" />
    <glyph glyph-name="umacron" unicode="&#x16b;" horiz-adv-x="590" 
d="M138 37q-44 48 -44 162v293h23v-288q0 -111 39 -153q37 -40 109 -40q103 0 206 98v383h23v-492h-23v81h-1q-98 -92 -209 -92q-79 0 -123 48zM169 635v20h252v-20h-252z" />
    <glyph glyph-name="Ubreve" unicode="&#x16c;" horiz-adv-x="716" 
d="M170 55q-44 44 -61.5 112t-17.5 180v377h23v-377q0 -107 16.5 -172.5t57.5 -105.5q60 -58 170 -58q132 0 193 84q29 40 40.5 98.5t11.5 153.5v377h22v-377q0 -97 -12 -157.5t-42 -104.5q-66 -97 -213 -97q-121 0 -188 67zM358 807q-59 0 -91 39.5t-34 96.5h19
q4 -51 29.5 -84t76.5 -33t76.5 33t29.5 84h19q-2 -57 -34 -96.5t-91 -39.5z" />
    <glyph glyph-name="ubreve" unicode="&#x16d;" horiz-adv-x="590" 
d="M138 37q-44 48 -44 162v293h23v-288q0 -111 39 -153q37 -40 109 -40q103 0 206 98v383h23v-492h-23v81h-1q-98 -92 -209 -92q-79 0 -123 48zM295 575q-59 0 -91 39.5t-34 96.5h19q4 -51 29.5 -84t76.5 -33t76.5 33t29.5 84h19q-2 -57 -34 -96.5t-91 -39.5z" />
    <glyph glyph-name="Uring" unicode="&#x16e;" horiz-adv-x="716" 
d="M170 55q-44 44 -61.5 112t-17.5 180v377h23v-377q0 -107 16.5 -172.5t57.5 -105.5q60 -58 170 -58q132 0 193 84q29 40 40.5 98.5t11.5 153.5v377h22v-377q0 -97 -12 -157.5t-42 -104.5q-66 -97 -213 -97q-121 0 -188 67zM358 790q-47 0 -77 30.5t-30 76.5t30 76.5
t77 30.5q46 0 76.5 -30.5t30.5 -76.5q0 -45 -30.5 -76t-76.5 -31zM358 809q38 0 62.5 25.5t24.5 62.5t-24.5 62.5t-62.5 25.5t-62.5 -25.5t-24.5 -62.5t24.5 -62.5t62.5 -25.5z" />
    <glyph glyph-name="uring" unicode="&#x16f;" horiz-adv-x="590" 
d="M138 37q-44 48 -44 162v293h23v-288q0 -111 39 -153q37 -40 109 -40q103 0 206 98v383h23v-492h-23v81h-1q-98 -92 -209 -92q-79 0 -123 48zM295 558q-47 0 -77 30.5t-30 76.5t30 76.5t77 30.5q46 0 76.5 -30.5t30.5 -76.5q0 -45 -30.5 -76t-76.5 -31zM295 577
q38 0 62.5 25.5t24.5 62.5t-24.5 62.5t-62.5 25.5t-62.5 -25.5t-24.5 -62.5t24.5 -62.5t62.5 -25.5z" />
    <glyph glyph-name="Uhungarumlaut" unicode="&#x170;" horiz-adv-x="716" 
d="M170 55q-44 44 -61.5 112t-17.5 180v377h23v-377q0 -107 16.5 -172.5t57.5 -105.5q60 -58 170 -58q132 0 193 84q29 40 40.5 98.5t11.5 153.5v377h22v-377q0 -97 -12 -157.5t-42 -104.5q-66 -97 -213 -97q-121 0 -188 67zM383 795l96 164h25l-101 -164h-20zM268 795
l96 164h25l-101 -164h-20z" />
    <glyph glyph-name="uhungarumlaut" unicode="&#x171;" horiz-adv-x="590" 
d="M138 37q-44 48 -44 162v293h23v-288q0 -111 39 -153q37 -40 109 -40q103 0 206 98v383h23v-492h-23v81h-1q-98 -92 -209 -92q-79 0 -123 48zM320 563l96 164h25l-101 -164h-20zM205 563l96 164h25l-101 -164h-20z" />
    <glyph glyph-name="Uogonek" unicode="&#x172;" horiz-adv-x="716" 
d="M170 55q-44 44 -61.5 112t-17.5 180v377h23v-377q0 -107 16.5 -172.5t57.5 -105.5q60 -58 170 -58q132 0 193 84q29 40 40.5 98.5t11.5 153.5v377h22v-377q0 -97 -12 -157.5t-42 -104.5q-57 -82 -171 -95q-76 -69 -76 -136q0 -32 17 -47.5t43 -15.5q19 0 38 7v-23
q-16 -6 -36 -6q-40 0 -62.5 23.5t-22.5 60.5q0 65 69 134v1h-12q-121 0 -188 67z" />
    <glyph glyph-name="uogonek" unicode="&#x173;" horiz-adv-x="590" 
d="M138 37q-44 48 -44 162v293h23v-288q0 -111 39 -153q37 -40 109 -40q103 0 206 98v383h23v-492q-88 -74 -88 -146q0 -32 17 -47.5t43 -15.5q19 0 38 7v-23q-17 -6 -36 -6q-40 0 -62.5 23.5t-22.5 60.5q0 72 88 151v75l-2 1q-99 -91 -208 -91q-79 0 -123 48z" />
    <glyph glyph-name="Wcircumflex" unicode="&#x174;" horiz-adv-x="991" 
d="M259 0l-231 724h24l137 -430l81 -255h1l81 257l135 428h17l141 -447l75 -238h1l76 239l142 446h24l-231 -724h-23l-150 476l-63 200h-1l-63 -200l-150 -476h-23zM363 795l120 164h24l120 -164h-22l-110 148l-110 -148h-22z" />
    <glyph glyph-name="wcircumflex" unicode="&#x175;" horiz-adv-x="803" 
d="M220 0l-177 492h23l102 -284l62 -173h1l60 167l104 290h13l99 -276l65 -181h1l62 173l102 284h23l-177 -492h-20l-101 281l-60 167h-1l-64 -178l-97 -270h-20zM269 563l120 164h24l120 -164h-22l-110 148l-110 -148h-22z" />
    <glyph glyph-name="Ycircumflex" unicode="&#x176;" horiz-adv-x="631" 
d="M304 0v328l-281 396h27l265 -374h1l265 374h27l-281 -396v-328h-23zM184 795l120 164h24l120 -164h-22l-110 148l-110 -148h-22z" />
    <glyph glyph-name="ycircumflex" unicode="&#x177;" horiz-adv-x="528" 
d="M142 -220h-25l135 274l-212 438h24l199 -413h1l200 413h24zM132 563l120 164h24l120 -164h-22l-110 148l-110 -148h-22z" />
    <glyph glyph-name="Ydieresis" unicode="&#x178;" horiz-adv-x="631" 
d="M304 0v328l-281 396h27l265 -374h1l265 374h27l-281 -396v-328h-23zM229 851q-11 0 -18.5 7.5t-7.5 18.5t7.5 18.5t18.5 7.5t18.5 -7.5t7.5 -18.5t-7.5 -18.5t-18.5 -7.5zM403 851q-11 0 -18.5 7.5t-7.5 18.5t7.5 18.5t18.5 7.5t18.5 -7.5t7.5 -18.5t-7.5 -18.5
t-18.5 -7.5z" />
    <glyph glyph-name="Zacute" unicode="&#x179;" horiz-adv-x="595" 
d="M553 0h-528l-1 2l493 699l-1 1h-468v22h511l1 -2l-493 -699l1 -1h485v-22zM382 959l-100 -164h-21l96 164h25z" />
    <glyph glyph-name="zacute" unicode="&#x17a;" 
d="M436 0h-404l-1 2l367 468l-1 1h-347v21h391l1 -2l-367 -468l1 -1h360v-21zM315 727l-100 -164h-21l96 164h25z" />
    <glyph glyph-name="Zdotaccent" unicode="&#x17b;" horiz-adv-x="595" 
d="M553 0h-528l-1 2l493 699l-1 1h-468v22h511l1 -2l-493 -699l1 -1h485v-22zM303 851q-11 0 -18.5 7.5t-7.5 18.5t7.5 18.5t18.5 7.5t18.5 -7.5t7.5 -18.5t-7.5 -18.5t-18.5 -7.5z" />
    <glyph glyph-name="zdotaccent" unicode="&#x17c;" 
d="M436 0h-404l-1 2l367 468l-1 1h-347v21h391l1 -2l-367 -468l1 -1h360v-21zM236 619q-10 0 -18 7.5t-8 18.5t8 18.5t18 7.5t18 -7.5t8 -18.5t-8 -18.5t-18 -7.5z" />
    <glyph glyph-name="Zcaron" unicode="&#x17d;" horiz-adv-x="595" 
d="M553 0h-528l-1 2l493 699l-1 1h-468v22h511l1 -2l-493 -699l1 -1h485v-22zM435 959l-120 -164h-24l-120 164h22l110 -148l110 148h22z" />
    <glyph glyph-name="zcaron" unicode="&#x17e;" 
d="M436 0h-404l-1 2l367 468l-1 1h-347v21h391l1 -2l-367 -468l1 -1h360v-21zM368 727l-120 -164h-24l-120 164h22l110 -148l110 148h22z" />
    <glyph glyph-name="longs" unicode="&#x17f;" horiz-adv-x="248" 
d="M115 0v471h-92v21h92v122q0 92 39 128q36 33 97 33q27 0 53 -7v-23q-26 8 -56 8q-61 0 -85.5 -34.5t-24.5 -103.5v-615h-23z" />
    <glyph glyph-name="florin" unicode="&#x192;" horiz-adv-x="482" 
d="M137 470l4 22h79l25 140q23 134 158 134q28 0 52 -7v-23q-21 8 -55 8q-113 0 -132 -109l-25 -143h144l-4 -22h-144l-100 -574q-22 -127 -132 -127q-30 0 -49 7v24q23 -9 53 -9q87 0 106 109l99 570h-79z" />
    <glyph glyph-name="AEacute" unicode="&#x1fc;" horiz-adv-x="914" 
d="M11 0l444 724h388v-22h-351v-315h312v-22h-312v-343h359v-22h-382v233h-290l-142 -233h-26zM467 702l-274 -447h276v447h-2zM690 959l-100 -164h-21l96 164h25z" />
    <glyph glyph-name="aeacute" unicode="&#x1fd;" horiz-adv-x="892" 
d="M627 481q-79 0 -142.5 -59t-69.5 -157h400v11q0 57 -18.5 99.5t-48.5 64t-60.5 31.5t-60.5 10zM645 -11q-132 0 -203 98q-104 -98 -224 -98q-68 0 -113 33q-50 36 -50 101q0 72 57 109q49 32 133 32q60 0 147 -23v76q0 49 -9 77.5t-34 50.5q-42 36 -109 36
q-84 0 -151 -48v25q66 45 151 45q77 0 125 -40q42 -35 48 -102h2q27 64 84.5 103t128.5 39q89 0 149.5 -60.5t60.5 -163.5q0 -16 -2 -36h-421q1 -103 66.5 -167.5t168.5 -64.5q88 0 157 52v-27q-71 -47 -162 -47zM218 11q116 0 212 93q-33 55 -37 115q-84 24 -148 24
q-70 0 -118.5 -27.5t-48.5 -89.5q0 -58 41.5 -86.5t98.5 -28.5zM559 727l-100 -164h-21l96 164h25z" />
    <glyph glyph-name="Oslashacute" unicode="&#x1fe;" horiz-adv-x="832" 
d="M78 362q0 -159 108 -261l444 536q-90 76 -214 76q-145 0 -241.5 -101.5t-96.5 -249.5zM55 362q0 157 103.5 265t257.5 108q131 0 228 -81l66 79l16 -13l-66 -80q117 -111 117 -278q0 -157 -103.5 -265t-257.5 -108q-131 0 -228 81l-66 -79l-16 13l66 80q-55 52 -86 124
t-31 154zM754 362q0 159 -108 261l-444 -536q90 -76 214 -76q145 0 241.5 101.5t96.5 249.5zM495 959l-100 -164h-21l96 164h25z" />
    <glyph glyph-name="oslashacute" unicode="&#x1ff;" horiz-adv-x="610" 
d="M79 246q0 -106 69 -173l298 359q-60 49 -141 49q-97 0 -161.5 -67t-64.5 -168zM56 246q0 109 71 183t178 74q89 0 156 -54l43 52l16 -13l-43 -52q77 -75 77 -190q0 -109 -71 -183t-178 -74q-89 0 -156 54l-43 -52l-16 13l43 52q-77 75 -77 190zM531 246q0 106 -69 173
l-298 -359q60 -49 141 -49q97 0 161.5 67t64.5 168zM384 727l-100 -164h-21l96 164h25z" />
    <glyph glyph-name="Scommaaccent" unicode="&#x218;" horiz-adv-x="545" 
d="M74 54v28q85 -71 207 -71q86 0 139.5 43.5t53.5 123.5q0 35 -12.5 63.5t-29 46t-46 32t-51 22t-56.5 16.5q-39 11 -61.5 18t-55.5 23t-50.5 34t-31 48.5t-13.5 69.5q0 87 57 135.5t149 48.5q114 0 196 -59v-27q-86 64 -196 64q-83 0 -133 -42t-50 -118q0 -29 7 -52.5
t23 -40.5t30.5 -29t41 -22t43 -15.5t46.5 -13.5q32 -9 51.5 -15t48.5 -17.5t46.5 -25.5t35 -34t26 -47t8.5 -61q0 -90 -59 -140.5t-155 -50.5q-56 0 -113 17.5t-96 47.5zM293 -54h24l-67 -218h-19z" />
    <glyph glyph-name="scommaaccent" unicode="&#x219;" horiz-adv-x="480" 
d="M55 36v29q79 -54 186 -54q76 0 119.5 29t43.5 84q0 26 -11 45.5t-26 31t-41 20.5t-44.5 12.5t-48.5 8.5q-24 3 -38 6t-39 9t-40.5 15.5t-32 22.5t-24.5 33t-8 45q0 61 48.5 95.5t132.5 34.5q98 0 175 -45v-28q-74 51 -177 51q-72 0 -114 -28t-42 -80q0 -24 10.5 -42.5
t24.5 -29t40 -18.5t43 -11.5t47 -7.5q25 -4 40 -7t40.5 -9.5t41.5 -16t33 -24t25 -35.5t8 -48q0 -63 -50 -99t-138 -36q-107 0 -184 47zM249 -54h24l-67 -218h-19z" />
    <glyph glyph-name="uni021A" unicode="&#x21a;" horiz-adv-x="615" 
d="M296 0v702h-256v22h535v-22h-256v-702h-23zM324 -54h24l-67 -218h-19z" />
    <glyph glyph-name="uni021B" unicode="&#x21b;" horiz-adv-x="354" 
d="M161 27q-33 37 -33 137v307h-107v21h107v142l23 4v-146h173v-21h-173v-304q0 -78 22 -117t87 -39q36 0 64 15v-24q-33 -13 -65 -13q-66 0 -98 38zM231 -54h24l-67 -218h-19z" />
    <glyph glyph-name="dotlessj" unicode="&#x237;" horiz-adv-x="220" 
d="M99 -89v581h23v-580q0 -75 -28 -108q-30 -35 -88 -35q-22 0 -47 5v23q26 -6 48 -6q51 0 71.5 30t20.5 90z" />
    <glyph glyph-name="circumflex" unicode="&#x2c6;" 
d="M103 563l120 164h24l120 -164h-22l-110 148l-110 -148h-22z" />
    <glyph glyph-name="caron" unicode="&#x2c7;" 
d="M367 727l-120 -164h-24l-120 164h22l110 -148l110 148h22z" />
    <glyph glyph-name="breve" unicode="&#x2d8;" 
d="M235 575q-59 0 -91 39.5t-34 96.5h19q4 -51 29.5 -84t76.5 -33t76.5 33t29.5 84h19q-2 -57 -34 -96.5t-91 -39.5z" />
    <glyph glyph-name="dotaccent" unicode="&#x2d9;" 
d="M235 619q-11 0 -18.5 7.5t-7.5 18.5t7.5 18.5t18.5 7.5t18.5 -7.5t7.5 -18.5t-7.5 -18.5t-18.5 -7.5z" />
    <glyph glyph-name="ring" unicode="&#x2da;" 
d="M235 558q-47 0 -77 30.5t-30 76.5t30 76.5t77 30.5q46 0 76.5 -30.5t30.5 -76.5q0 -45 -30.5 -76t-76.5 -31zM235 577q38 0 62.5 25.5t24.5 62.5t-24.5 62.5t-62.5 25.5t-62.5 -25.5t-24.5 -62.5t24.5 -62.5t62.5 -25.5z" />
    <glyph glyph-name="ogonek" unicode="&#x2db;" 
d="M180 -147q0 74 92 155l20 -7q-89 -76 -89 -147q0 -32 17 -47.5t43 -15.5q19 0 38 7v-23q-17 -6 -36 -6q-40 0 -62.5 23.5t-22.5 60.5z" />
    <glyph glyph-name="tilde" unicode="&#x2dc;" 
d="M229 641q-42 27 -66 27q-44 0 -74 -54h-2v27q28 47 77 47q29 0 77 -31q42 -27 66 -27q44 0 74 54h2v-27q-28 -47 -77 -47q-29 0 -77 31z" />
    <glyph glyph-name="hungarumlaut" unicode="&#x2dd;" 
d="M260 563l96 164h25l-101 -164h-20zM145 563l96 164h25l-101 -164h-20z" />
    <glyph glyph-name="uni0394" unicode="&#x394;" horiz-adv-x="653" 
d="M17 0v16l299 708h21l299 -708v-16h-619zM44 22h564l-281 669h-1z" />
    <glyph glyph-name="uni03A9" unicode="&#x3a9;" horiz-adv-x="734" 
d="M18 0v22h218l1 2q-85 80 -132.5 177t-47.5 198q0 147 84.5 241.5t225.5 94.5t225.5 -94.5t84.5 -241.5q0 -101 -47.5 -198t-132.5 -177l1 -2h218v-22h-257v17q195 171 195 384q0 137 -78 224.5t-209 87.5t-209 -87.5t-78 -224.5q0 -213 195 -384v-17h-257z" />
    <glyph glyph-name="uni03BC" unicode="&#x3bc;" horiz-adv-x="605" 
d="M268 -11q-106 0 -145 79h-1l2 -288h-24v712h23v-288q0 -111 39 -153q37 -40 109 -40q103 0 206 98v383h23v-492h-23v79l-2 1q-99 -91 -207 -91z" />
    <glyph glyph-name="pi" unicode="&#x3c0;" horiz-adv-x="632" 
d="M138 0q32 223 34 471q-81 -7 -141 -54v23q65 52 154 52h421l-4 -21h-119v-471h-23v471h-265q-1 -215 -34 -471h-23z" />
    <glyph glyph-name="Wgrave" unicode="&#x1e80;" horiz-adv-x="991" 
d="M259 0l-231 724h24l137 -430l81 -255h1l81 257l135 428h17l141 -447l75 -238h1l76 239l142 446h24l-231 -724h-23l-150 476l-63 200h-1l-63 -200l-150 -476h-23zM516 795l-100 164h25l96 -164h-21z" />
    <glyph glyph-name="wgrave" unicode="&#x1e81;" horiz-adv-x="803" 
d="M220 0l-177 492h23l102 -284l62 -173h1l60 167l104 290h13l99 -276l65 -181h1l62 173l102 284h23l-177 -492h-20l-101 281l-60 167h-1l-64 -178l-97 -270h-20zM422 563l-100 164h25l96 -164h-21z" />
    <glyph glyph-name="Wacute" unicode="&#x1e82;" horiz-adv-x="991" 
d="M259 0l-231 724h24l137 -430l81 -255h1l81 257l135 428h17l141 -447l75 -238h1l76 239l142 446h24l-231 -724h-23l-150 476l-63 200h-1l-63 -200l-150 -476h-23zM574 959l-100 -164h-21l96 164h25z" />
    <glyph glyph-name="wacute" unicode="&#x1e83;" horiz-adv-x="803" 
d="M220 0l-177 492h23l102 -284l62 -173h1l60 167l104 290h13l99 -276l65 -181h1l62 173l102 284h23l-177 -492h-20l-101 281l-60 167h-1l-64 -178l-97 -270h-20zM480 727l-100 -164h-21l96 164h25z" />
    <glyph glyph-name="Wdieresis" unicode="&#x1e84;" horiz-adv-x="991" 
d="M259 0l-231 724h24l137 -430l81 -255h1l81 257l135 428h17l141 -447l75 -238h1l76 239l142 446h24l-231 -724h-23l-150 476l-63 200h-1l-63 -200l-150 -476h-23zM408 851q-10 0 -18 7.5t-8 18.5t8 18.5t18 7.5t18 -7.5t8 -18.5t-8 -18.5t-18 -7.5zM582 851q-10 0 -18 7.5
t-8 18.5t8 18.5t18 7.5t18 -7.5t8 -18.5t-8 -18.5t-18 -7.5z" />
    <glyph glyph-name="wdieresis" unicode="&#x1e85;" horiz-adv-x="803" 
d="M220 0l-177 492h23l102 -284l62 -173h1l60 167l104 290h13l99 -276l65 -181h1l62 173l102 284h23l-177 -492h-20l-101 281l-60 167h-1l-64 -178l-97 -270h-20zM314 619q-10 0 -18 7.5t-8 18.5t8 18.5t18 7.5t18 -7.5t8 -18.5t-8 -18.5t-18 -7.5zM488 619q-10 0 -18 7.5
t-8 18.5t8 18.5t18 7.5t18 -7.5t8 -18.5t-8 -18.5t-18 -7.5z" />
    <glyph glyph-name="Ygrave" unicode="&#x1ef2;" horiz-adv-x="631" 
d="M304 0v328l-281 396h27l265 -374h1l265 374h27l-281 -396v-328h-23zM337 795l-100 164h25l96 -164h-21z" />
    <glyph glyph-name="ygrave" unicode="&#x1ef3;" horiz-adv-x="528" 
d="M142 -220h-25l135 274l-212 438h24l199 -413h1l200 413h24zM285 563l-100 164h25l96 -164h-21z" />
    <glyph glyph-name="endash" unicode="&#x2013;" horiz-adv-x="504" 
d="M56 267v21h392v-21h-392z" />
    <glyph glyph-name="emdash" unicode="&#x2014;" horiz-adv-x="796" 
d="M41 267v21h714v-21h-714z" />
    <glyph glyph-name="quoteleft" unicode="&#x2018;" horiz-adv-x="269" 
d="M88 489l67 253h18l-58 -253h-27z" />
    <glyph glyph-name="quoteright" unicode="&#x2019;" horiz-adv-x="269" 
d="M96 489l58 253h27l-67 -253h-18z" />
    <glyph glyph-name="quotesinglbase" unicode="&#x201a;" horiz-adv-x="269" 
d="M88 -89l58 253h27l-67 -253h-18z" />
    <glyph glyph-name="quotedblleft" unicode="&#x201c;" horiz-adv-x="404" 
d="M88 489l67 253h18l-58 -253h-27zM223 489l67 253h18l-58 -253h-27z" />
    <glyph glyph-name="quotedblright" unicode="&#x201d;" horiz-adv-x="404" 
d="M96 489l58 253h27l-67 -253h-18zM231 489l58 253h27l-67 -253h-18z" />
    <glyph glyph-name="quotedblbase" unicode="&#x201e;" horiz-adv-x="402" 
d="M88 -89l58 253h27l-67 -253h-18zM221 -89l58 253h27l-67 -253h-18z" />
    <glyph glyph-name="dagger" unicode="&#x2020;" horiz-adv-x="614" 
d="M296 -220v670h-224v21h224v253h22v-253h224v-21h-224v-670h-22z" />
    <glyph glyph-name="daggerdbl" unicode="&#x2021;" horiz-adv-x="614" 
d="M72 33v21h224v396h-224v21h224v253h22v-253h224v-21h-224v-396h224v-21h-224v-253h-22v253h-224z" />
    <glyph glyph-name="bullet" unicode="&#x2022;" horiz-adv-x="394" 
d="M107 297q0 37 26.5 63.5t63.5 26.5t63.5 -26.5t26.5 -63.5t-26.5 -63.5t-63.5 -26.5t-63.5 26.5t-26.5 63.5z" />
    <glyph glyph-name="ellipsis" unicode="&#x2026;" horiz-adv-x="850" 
d="M120 21q0 13 9 22.5t23 9.5t23 -9.5t9 -22.5t-9 -22.5t-23 -9.5t-23 9.5t-9 22.5zM393 21q0 13 9.5 22.5t22.5 9.5t22.5 -9.5t9.5 -22.5t-9.5 -22.5t-22.5 -9.5t-22.5 9.5t-9.5 22.5zM666 21q0 13 9 22.5t23 9.5t23 -9.5t9 -22.5t-9 -22.5t-23 -9.5t-23 9.5t-9 22.5z" />
    <glyph glyph-name="perthousand" unicode="&#x2030;" horiz-adv-x="1349" 
d="M230 361q-69 0 -118.5 54.5t-49.5 132.5t49.5 132.5t118.5 54.5t118.5 -54.5t49.5 -132.5t-49.5 -132.5t-118.5 -54.5zM218 0l471 724h25l-471 -724h-25zM230 382q60 0 103 48t43 118t-43 118t-103 48t-103 -48t-43 -118t43 -118t103 -48zM951 176q0 78 49.5 132.5
t118.5 54.5t118.5 -54.5t49.5 -132.5t-49.5 -132.5t-118.5 -54.5t-118.5 54.5t-49.5 132.5zM534 176q0 78 49.5 132.5t118.5 54.5t118.5 -54.5t49.5 -132.5t-49.5 -132.5t-118.5 -54.5t-118.5 54.5t-49.5 132.5zM973 176q0 -70 43 -118t103 -48t103 48t43 118t-43 118
t-103 48t-103 -48t-43 -118zM556 176q0 -70 43 -118t103 -48t103 48t43 118t-43 118t-103 48t-103 -48t-43 -118z" />
    <glyph glyph-name="guilsinglleft" unicode="&#x2039;" horiz-adv-x="343" 
d="M242 27l-170 219l170 219h27l-170 -219l170 -219h-27z" />
    <glyph glyph-name="guilsinglright" unicode="&#x203a;" horiz-adv-x="343" 
d="M74 27l170 219l-170 219h27l170 -219l-170 -219h-27z" />
    <glyph glyph-name="fraction" unicode="&#x2044;" horiz-adv-x="342" 
d="M-58 -13h-26l484 737h26z" />
    <glyph glyph-name="four.superior" unicode="&#x2074;" horiz-adv-x="397" 
d="M263 422v122h-239l-1 2l240 310h20v-293h99v-19h-99v-122h-20zM61 564l1 -1h201v261h-1z" />
    <glyph glyph-name="Euro" unicode="&#x20ac;" horiz-adv-x="605" 
d="M10 276v21h89q-4 38 -4 65q0 40 6 78h-91v21h95q26 123 113.5 198.5t218.5 75.5q54 0 106 -16v-25q-49 19 -105 19q-121 0 -202 -69.5t-107 -182.5h250v-21h-254q-7 -36 -7 -79q0 -37 4 -64h257v-21h-253q22 -120 104.5 -192.5t209.5 -72.5q64 0 116 22v-25
q-44 -19 -116 -19q-137 0 -225.5 79t-111.5 208h-93z" />
    <glyph glyph-name="litre" unicode="&#x2113;" horiz-adv-x="435" 
d="M62 144l-33 57q56 52 80 77v258q0 102 40.5 158t102.5 56q53 0 84.5 -41.5t31.5 -113.5q0 -157 -159 -328v-66q0 -75 14.5 -105.5t46.5 -30.5q40 0 88 55l37 -48q-60 -86 -148 -86q-69 0 -103 46t-34 123v35q-43 -43 -48 -46zM209 363q85 115 85 232q0 81 -38 81
q-47 0 -47 -132v-181z" />
    <glyph glyph-name="trademark" unicode="&#x2122;" horiz-adv-x="659" 
d="M308 434v290h22l111 -164l114 164h21v-290h-20v257h-2l-113 -163l-112 166h-2v-260h-19zM136 434v271h-98v19h216v-19h-98v-271h-20z" />
    <glyph glyph-name="Omega" unicode="&#x2126;" horiz-adv-x="734" 
d="M18 0v22h218l1 2q-85 80 -132.5 177t-47.5 198q0 147 84.5 241.5t225.5 94.5t225.5 -94.5t84.5 -241.5q0 -101 -47.5 -198t-132.5 -177l1 -2h218v-22h-257v17q195 171 195 384q0 137 -78 224.5t-209 87.5t-209 -87.5t-78 -224.5q0 -213 195 -384v-17h-257z" />
    <glyph glyph-name="estimated" unicode="&#x212e;" horiz-adv-x="762" 
d="M179 137q0 -41 35.5 -71t81 -42.5t91.5 -12.5q67 0 131.5 30.5t106.5 87.5l33 -7q-102 -139 -274 -139q-146 0 -241.5 93t-95.5 229t95.5 229.5t240.5 93.5q85 0 157.5 -32.5t122 -101.5t53.5 -162q1 -23 -4 -27.5t-28 -4.5h-473q-25 0 -28.5 -4t-3.5 -28v-131zM211 328
h342q25 0 28.5 4t3.5 28v125q0 48 -59.5 81.5t-143.5 33.5t-143.5 -33.5t-59.5 -81.5v-125q0 -24 3.5 -28t28.5 -4z" />
    <glyph glyph-name="partialdiff" unicode="&#x2202;" horiz-adv-x="551" 
d="M47 194q0 98 60 172t163 74q111 0 195 -84h1q0 50 -3.5 96t-17 103.5t-35 98.5t-61.5 69t-93 28q-67 0 -125 -44v26q54 40 124 40q63 0 110 -33.5t73 -91.5t38 -126t12 -148q0 -77 -12 -142.5t-38 -122t-74 -88.5t-115 -32q-90 0 -146 56t-56 149zM70 196q0 -83 48 -134
t130 -51q105 0 157.5 84t59.5 233q-81 90 -193 90q-96 0 -149 -67t-53 -155z" />
    <glyph glyph-name="Delta" unicode="&#x2206;" horiz-adv-x="653" 
d="M17 0v16l299 708h21l299 -708v-16h-619zM44 22h564l-281 669h-1z" />
    <glyph glyph-name="product" unicode="&#x220f;" horiz-adv-x="776" 
d="M183 -116v818h-140v22h691v-22h-140v-818h-23v818h-365v-818h-23z" />
    <glyph glyph-name="summation" unicode="&#x2211;" horiz-adv-x="607" 
d="M52 -100l259 426l-253 382v16h473v-22h-443l249 -376l-255 -420h466v-22h-496v16z" />
    <glyph glyph-name="minus" unicode="&#x2212;" horiz-adv-x="578" 
d="M54 352v21h470v-21h-470z" />
    <glyph glyph-name="radical" unicode="&#x221a;" horiz-adv-x="661" 
d="M348 -116h-16l-212 574l-118 -49l-8 19l139 58l206 -562h1l321 954h23z" />
    <glyph glyph-name="infinity" unicode="&#x221e;" horiz-adv-x="760" 
d="M195 90q35 0 62.5 13t48.5 39t33.5 49.5t29.5 61.5q-31 76 -70.5 118.5t-103.5 42.5q-60 0 -98 -46t-38 -116q0 -69 37.5 -115.5t98.5 -46.5zM36 252q0 77 44 130.5t117 53.5q118 0 184 -157h1q32 76 75 116.5t109 40.5q71 0 114.5 -54t43.5 -130q0 -77 -44 -130.5
t-117 -53.5q-118 0 -184 157h-1q-32 -76 -75 -116.5t-109 -40.5q-71 0 -114.5 54t-43.5 130zM565 414q-35 0 -62.5 -13t-48.5 -39t-33.5 -49.5t-29.5 -61.5q31 -76 70.5 -118.5t103.5 -42.5q60 0 98 46t38 116q0 69 -37.5 115.5t-98.5 46.5z" />
    <glyph glyph-name="integral" unicode="&#x222b;" horiz-adv-x="343" 
d="M67 -156q27 -5 55 -5q112 0 112 109q0 26 -13 89l-124 576q-11 55 -11 83q0 61 37 95.5t100 34.5q26 0 54 -5v-23q-32 6 -57 6q-52 0 -81.5 -27.5t-29.5 -82.5q0 -27 13 -88l124 -577q11 -51 11 -81q0 -62 -36.5 -96.5t-99.5 -34.5q-26 0 -54 5v22z" />
    <glyph glyph-name="approxequal" unicode="&#x2248;" horiz-adv-x="578" 
d="M94 405l-13 16q30 65 98 65q39 0 113 -29t106 -29t50.5 14.5t35.5 45.5l13 -16q-30 -65 -98 -65q-39 0 -113 29t-106 29t-50.5 -14.5t-35.5 -45.5zM94 236l-13 16q30 65 98 65q39 0 113 -29t106 -29t50.5 14.5t35.5 45.5l13 -16q-30 -65 -98 -65q-39 0 -113 29t-106 29
t-50.5 -14.5t-35.5 -45.5z" />
    <glyph glyph-name="notequal" unicode="&#x2260;" horiz-adv-x="578" 
d="M54 445v21h303l136 170l18 -15l-124 -155h137v-21h-154l-132 -166h286v-21h-303l-136 -170l-18 15l124 155h-137v21h154l132 166h-286z" />
    <glyph glyph-name="lessequal" unicode="&#x2264;" horiz-adv-x="656" 
d="M98 353v17l460 222v-23l-429 -207v-1l429 -207v-23zM98 0v21h460v-21h-460z" />
    <glyph glyph-name="greaterequal" unicode="&#x2265;" horiz-adv-x="656" 
d="M98 131v23l429 207v1l-429 207v23l460 -222v-17zM98 0v21h460v-21h-460z" />
    <glyph glyph-name="lozenge" unicode="&#x25ca;" horiz-adv-x="526" 
d="M260 -18l-185 378l185 378h5l185 -378l-185 -378h-5zM262 27h1l163 333l-163 333h-1l-163 -333z" />
    <glyph glyph-name="commaaccent" unicode="&#xf6c3;" 
d="M252 -54h24l-67 -218h-19z" />
    <glyph glyph-name="apple" unicode="&#xf8ff;" horiz-adv-x="1016" 
d="M489 674q-2 12 -2 27q0 63 51 120t120 66l15 1q2 -14 2 -25q0 -74 -56 -132q-55 -57 -130 -57zM214 96q-48 64 -77 148t-29 169q0 124 67 197q68 74 177 74q39 0 94 -21q42 -16 56 -16q12 0 79 23q42 14 88 14q117 0 187 -87q-101 -74 -101 -176q0 -118 125 -183
q-35 -99 -98 -171t-116 -72q-21 0 -82 22q-46 17 -77 17q-30 0 -65 -13q-68 -26 -87 -26q-66 0 -141 101z" />
    <glyph glyph-name="ff" unicode="&#xfb00;" horiz-adv-x="604" 
d="M408 0v471h-270v-471h-23v471h-92v21h92v122q0 92 39 128q36 33 97 33q27 0 53 -7v-23q-26 8 -56 8q-61 0 -85.5 -34.5t-24.5 -103.5v-123h270v122q0 92 39 128q36 33 97 33q27 0 53 -7v-23q-26 8 -56 8q-61 0 -85.5 -34.5t-24.5 -103.5v-123h142v-21h-142v-471h-23z" />
    <glyph glyph-name="commaaccent.alt" 
d="M193 556l67 218h19l-62 -218h-24z" />
    <glyph glyph-name="hyphen.cap" horiz-adv-x="366" 
d="M69 350v22h228v-22h-228z" />
    <glyph glyph-name="exclamdown.cap" horiz-adv-x="322" 
d="M170 529l3 -528h-24l3 528h18zM193 704q0 -14 -9.5 -23t-22.5 -9t-22.5 9t-9.5 23t9.5 23t22.5 9t22.5 -9t9.5 -23z" />
    <glyph glyph-name="questiondown.cap" horiz-adv-x="466" 
d="M304 541l16 -149q-98 0 -163.5 -54.5t-65.5 -140.5q0 -79 55 -132t141 -53q64 0 122 34l3 -24q-59 -32 -127 -32q-92 0 -154.5 59.5t-62.5 147.5q0 90 65.5 149t161.5 65l-13 130h22zM308 704q0 -14 -9 -23t-23 -9t-23 9t-9 23t9 23t23 9t23 -9t9 -23z" />
    <glyph glyph-name="guilsinglleft.cap" horiz-adv-x="343" 
d="M242 143l-170 219l170 219h27l-170 -219l170 -219h-27z" />
    <glyph glyph-name="guilsinglright.cap" horiz-adv-x="343" 
d="M74 143l170 219l-170 219h27l170 -219l-170 -219h-27z" />
    <glyph glyph-name="guillemotleft.cap" horiz-adv-x="532" 
d="M242 143l-170 219l170 219h27l-170 -219l170 -219h-27zM431 143l-170 219l170 219h27l-170 -219l170 -219h-27z" />
    <glyph glyph-name="guillemotright.cap" horiz-adv-x="532" 
d="M74 143l170 219l-170 219h27l170 -219l-170 -219h-27zM263 143l170 219l-170 219h27l170 -219l-170 -219h-27z" />
    <glyph glyph-name="endash.cap" horiz-adv-x="504" 
d="M56 351v21h392v-21h-392z" />
    <glyph glyph-name="emdash.cap" horiz-adv-x="796" 
d="M41 351v21h714v-21h-714z" />
    <glyph glyph-name="parenleft.cap" horiz-adv-x="298" 
d="M92 362q0 150 41.5 272t105.5 206h25q-67 -88 -108.5 -211t-41.5 -267t41.5 -267t108.5 -211h-25q-64 84 -105.5 206t-41.5 272z" />
    <glyph glyph-name="parenright.cap" horiz-adv-x="298" 
d="M34 -116q67 88 108.5 211t41.5 267t-41.5 267t-108.5 211h25q64 -84 105.5 -206t41.5 -272t-41.5 -272t-105.5 -206h-25z" />
    <glyph glyph-name="bracketleft.cap" horiz-adv-x="313" 
d="M118 -95h165v-21h-187v956h187v-21h-165v-914z" />
    <glyph glyph-name="bracketright.cap" horiz-adv-x="313" 
d="M30 -95h165v914h-165v21h187v-956h-187v21z" />
    <glyph glyph-name="braceleft.cap" horiz-adv-x="336" 
d="M147 23v228q0 56 -16 78t-77 22h-22v22h22q61 0 77 22t16 78v228q0 83 27.5 116.5t92.5 33.5q23 0 51 -6v-21q-28 6 -51 6q-57 0 -77.5 -29.5t-20.5 -99.5v-228q0 -47 -11.5 -74t-46.5 -36v-1q35 -9 46.5 -36.5t11.5 -74.5v-228q0 -70 20.5 -99.5t77.5 -29.5q23 0 51 6
v-21q-28 -6 -51 -6q-65 0 -92.5 33.5t-27.5 116.5z" />
    <glyph glyph-name="braceright.cap" horiz-adv-x="336" 
d="M167 23v228q0 47 11.5 74t46.5 36v1q-35 9 -46.5 36.5t-11.5 74.5v228q0 70 -20.5 99.5t-77.5 29.5q-23 0 -51 -6v21q28 6 51 6q65 0 92.5 -33.5t27.5 -116.5v-228q0 -56 16 -78t77 -22h22v-22h-22q-61 0 -77 -22t-16 -78v-228q0 -83 -27.5 -116.5t-92.5 -33.5
q-23 0 -51 6v21q28 -6 51 -6q57 0 77.5 29.5t20.5 99.5z" />
    <glyph glyph-name="i.TRK" horiz-adv-x="215" 
d="M97 0v492h23v-492h-23z" />
    <glyph glyph-name="tilde.cap" 
d="M229 873q-42 27 -66 27q-44 0 -74 -54h-2v27q28 47 77 47q29 0 77 -31q42 -27 66 -27q44 0 74 54h2v-27q-28 -47 -77 -47q-29 0 -77 31z" />
    <glyph glyph-name="dieresis.cap" 
d="M148 851q-10 0 -18 7.5t-8 18.5t8 18.5t18 7.5t18 -7.5t8 -18.5t-8 -18.5t-18 -7.5zM322 851q-10 0 -18 7.5t-8 18.5t8 18.5t18 7.5t18 -7.5t8 -18.5t-8 -18.5t-18 -7.5z" />
    <glyph glyph-name="macron.cap" 
d="M109 867v20h252v-20h-252z" />
    <glyph glyph-name="breve.cap" 
d="M235 807q-59 0 -91 39.5t-34 96.5h19q4 -51 29.5 -84t76.5 -33t76.5 33t29.5 84h19q-2 -57 -34 -96.5t-91 -39.5z" />
    <glyph glyph-name="ring.cap" 
d="M235 790q-47 0 -77 30.5t-30 76.5t30 76.5t77 30.5q46 0 76.5 -30.5t30.5 -76.5q0 -45 -30.5 -76t-76.5 -31zM235 809q38 0 62.5 25.5t24.5 62.5t-24.5 62.5t-62.5 25.5t-62.5 -25.5t-24.5 -62.5t24.5 -62.5t62.5 -25.5z" />
    <glyph glyph-name="hungarumlaut.cap" 
d="M260 795l96 164h25l-101 -164h-20zM145 795l96 164h25l-101 -164h-20z" />
    <glyph glyph-name="dotaccent.cap" 
d="M235 851q-11 0 -18.5 7.5t-7.5 18.5t7.5 18.5t18.5 7.5t18.5 -7.5t7.5 -18.5t-7.5 -18.5t-18.5 -7.5z" />
    <glyph glyph-name="grave.cap" 
d="M256 795l-100 164h25l96 -164h-21z" />
    <glyph glyph-name="acute.cap" 
d="M314 959l-100 -164h-21l96 164h25z" />
    <glyph glyph-name="circumflex.cap" 
d="M103 795l120 164h24l120 -164h-22l-110 148l-110 -148h-22z" />
    <glyph glyph-name="caron.cap" 
d="M367 959l-120 -164h-24l-120 164h22l110 -148l110 148h22z" />
    <glyph glyph-name="a.alt" horiz-adv-x="586" 
d="M55 239q0 109 66 186.5t179 77.5q74 0 166 -47l23 4v-460h-23v66l-1 1q-68 -78 -179 -78q-100 0 -165.5 70t-65.5 180zM78 239q0 -101 58.5 -164.5t150.5 -63.5q109 0 179 87v332q-82 51 -166 51q-100 0 -161 -69t-61 -173z" />
    <glyph glyph-name="agrave.alt" horiz-adv-x="586" 
d="M55 239q0 109 66 186.5t179 77.5q74 0 166 -47l23 4v-460h-23v66l-1 1q-68 -78 -179 -78q-100 0 -165.5 70t-65.5 180zM78 239q0 -101 58.5 -164.5t150.5 -63.5q109 0 179 87v332q-82 51 -166 51q-100 0 -161 -69t-61 -173zM312 563l-100 164h25l96 -164h-21z" />
    <glyph glyph-name="aacute.alt" horiz-adv-x="586" 
d="M55 239q0 109 66 186.5t179 77.5q74 0 166 -47l23 4v-460h-23v66l-1 1q-68 -78 -179 -78q-100 0 -165.5 70t-65.5 180zM78 239q0 -101 58.5 -164.5t150.5 -63.5q109 0 179 87v332q-82 51 -166 51q-100 0 -161 -69t-61 -173zM370 727l-100 -164h-21l96 164h25z" />
    <glyph glyph-name="acircumflex.alt" horiz-adv-x="586" 
d="M55 239q0 109 66 186.5t179 77.5q74 0 166 -47l23 4v-460h-23v66l-1 1q-68 -78 -179 -78q-100 0 -165.5 70t-65.5 180zM78 239q0 -101 58.5 -164.5t150.5 -63.5q109 0 179 87v332q-82 51 -166 51q-100 0 -161 -69t-61 -173zM159 563l120 164h24l120 -164h-22l-110 148
l-110 -148h-22z" />
    <glyph glyph-name="atilde.alt" horiz-adv-x="586" 
d="M55 239q0 109 66 186.5t179 77.5q74 0 166 -47l23 4v-460h-23v66l-1 1q-68 -78 -179 -78q-100 0 -165.5 70t-65.5 180zM78 239q0 -101 58.5 -164.5t150.5 -63.5q109 0 179 87v332q-82 51 -166 51q-100 0 -161 -69t-61 -173zM285 641q-42 27 -66 27q-44 0 -74 -54h-2v27
q28 47 77 47q29 0 77 -31q42 -27 66 -27q44 0 74 54h2v-27q-28 -47 -77 -47q-29 0 -77 31z" />
    <glyph glyph-name="adieresis.alt" horiz-adv-x="586" 
d="M55 239q0 109 66 186.5t179 77.5q74 0 166 -47l23 4v-460h-23v66l-1 1q-68 -78 -179 -78q-100 0 -165.5 70t-65.5 180zM78 239q0 -101 58.5 -164.5t150.5 -63.5q109 0 179 87v332q-82 51 -166 51q-100 0 -161 -69t-61 -173zM204 619q-10 0 -18 7.5t-8 18.5t8 18.5t18 7.5
t18 -7.5t8 -18.5t-8 -18.5t-18 -7.5zM378 619q-10 0 -18 7.5t-8 18.5t8 18.5t18 7.5t18 -7.5t8 -18.5t-8 -18.5t-18 -7.5z" />
    <glyph glyph-name="amacron.alt" horiz-adv-x="586" 
d="M55 239q0 109 66 186.5t179 77.5q74 0 166 -47l23 4v-460h-23v66l-1 1q-68 -78 -179 -78q-100 0 -165.5 70t-65.5 180zM78 239q0 -101 58.5 -164.5t150.5 -63.5q109 0 179 87v332q-82 51 -166 51q-100 0 -161 -69t-61 -173zM165 635v20h252v-20h-252z" />
    <glyph glyph-name="abreve.alt" horiz-adv-x="586" 
d="M55 239q0 109 66 186.5t179 77.5q74 0 166 -47l23 4v-460h-23v66l-1 1q-68 -78 -179 -78q-100 0 -165.5 70t-65.5 180zM78 239q0 -101 58.5 -164.5t150.5 -63.5q109 0 179 87v332q-82 51 -166 51q-100 0 -161 -69t-61 -173zM291 575q-59 0 -91 39.5t-34 96.5h19
q4 -51 29.5 -84t76.5 -33t76.5 33t29.5 84h19q-2 -57 -34 -96.5t-91 -39.5z" />
    <glyph glyph-name="aring.alt" horiz-adv-x="586" 
d="M55 239q0 109 66 186.5t179 77.5q74 0 166 -47l23 4v-460h-23v66l-1 1q-68 -78 -179 -78q-100 0 -165.5 70t-65.5 180zM78 239q0 -101 58.5 -164.5t150.5 -63.5q109 0 179 87v332q-82 51 -166 51q-100 0 -161 -69t-61 -173zM291 558q-47 0 -77 30.5t-30 76.5t30 76.5
t77 30.5q46 0 76.5 -30.5t30.5 -76.5q0 -45 -30.5 -76t-76.5 -31zM291 577q38 0 62.5 25.5t24.5 62.5t-24.5 62.5t-62.5 25.5t-62.5 -25.5t-24.5 -62.5t24.5 -62.5t62.5 -25.5z" />
    <glyph glyph-name="ae.alt" horiz-adv-x="962" 
d="M55 238q0 110 65.5 187.5t177.5 77.5q73 0 164 -47l23 4v-95l2 -1q27 63 84 101t127 38q89 0 149.5 -60.5t60.5 -163.5q0 -16 -2 -36h-421q1 -103 66.5 -167.5t168.5 -64.5q86 0 157 52v-27q-71 -47 -161 -47q-72 0 -129.5 31.5t-89.5 88.5q-82 -120 -212 -120
q-100 0 -165 69.5t-65 179.5zM285 11q125 0 201 119q-24 54 -24 116v184q-80 51 -164 51q-100 0 -160 -69t-60 -173q0 -101 57.5 -164.5t149.5 -63.5zM697 481q-79 0 -142.5 -59t-69.5 -157h400v11q0 57 -18.5 99.5t-48.5 64t-60.5 31.5t-60.5 10z" />
    <glyph glyph-name="aeacute.alt" horiz-adv-x="962" 
d="M588 727l-100 -164h-21l96 164h25zM55 238q0 110 65.5 187.5t177.5 77.5q73 0 164 -47l23 4v-95l2 -1q27 63 84 101t127 38q89 0 149.5 -60.5t60.5 -163.5q0 -16 -2 -36h-421q1 -103 66.5 -167.5t168.5 -64.5q86 0 157 52v-27q-71 -47 -161 -47q-72 0 -129.5 31.5
t-89.5 88.5q-82 -120 -212 -120q-100 0 -165 69.5t-65 179.5zM285 11q125 0 201 119q-24 54 -24 116v184q-80 51 -164 51q-100 0 -160 -69t-60 -173q0 -101 57.5 -164.5t149.5 -63.5zM697 481q-79 0 -142.5 -59t-69.5 -157h400v11q0 57 -18.5 99.5t-48.5 64t-60.5 31.5
t-60.5 10z" />
    <glyph glyph-name="aogonek.alt" horiz-adv-x="586" 
d="M55 239q0 109 66 186.5t179 77.5q74 0 166 -47l23 4v-460q-88 -74 -88 -146q0 -32 17 -47.5t43 -15.5q19 0 38 7v-23q-16 -6 -36 -6q-40 0 -62.5 23.5t-22.5 60.5q0 72 88 151v62l-1 1q-68 -78 -179 -78q-100 0 -165.5 70t-65.5 180zM78 239q0 -101 58.5 -164.5
t150.5 -63.5q109 0 179 87v332q-82 51 -166 51q-100 0 -161 -69t-61 -173z" />
    <glyph glyph-name="ordfeminine.alt" horiz-adv-x="402" 
d="M70 564q0 -63 36.5 -103t94.5 -40q66 0 111 53v210q-56 31 -104 31q-62 0 -100 -43t-38 -108zM47 563q0 72 44 122t118 50q49 0 104 -29l20 4v-302h-22v38l-1 1q-43 -46 -111 -46q-65 0 -108.5 45t-43.5 117z" />
    <glyph glyph-name="periodcentered.cap" horiz-adv-x="304" 
d="M120 362q0 14 9 23t23 9t23 -9t9 -23t-9 -23t-23 -9t-23 9t-9 23z" />
    <glyph glyph-name="at.cap" horiz-adv-x="823" 
d="M46 363q0 156 104 264t262 108t261.5 -108t103.5 -265q0 -83 -34.5 -137.5t-104.5 -54.5q-36 0 -66.5 18.5t-40.5 55.5h-1q-27 -35 -65.5 -55t-78.5 -20q-66 0 -110 46.5t-44 122.5q0 86 54 151.5t140 65.5q63 0 120 -39l23 4l-20 -217q-1 -10 -1 -24q0 -41 24.5 -64.5
t67.5 -23.5q53 0 83.5 42t30.5 126q0 152 -97.5 253t-244.5 101t-245 -101t-98 -249q0 -150 98.5 -251t245.5 -101q132 0 223 82l13 -19q-101 -85 -238 -85q-157 0 -261 109t-104 265zM388 191q85 0 138 81q0 15 1 24l18 195q-55 42 -119 42q-74 0 -122.5 -57.5
t-48.5 -135.5q0 -66 36.5 -107.5t96.5 -41.5z" />
    </font>
</defs>
</svg>
